<?xml version="1.0" encoding="utf-8"?>
<!-- Generator: Adobe Illustrator 16.0.0, SVG Export Plug-In . SVG Version: 6.00 Build 0)  -->
<!DOCTYPE svg PUBLIC "-//W3C//DTD SVG 1.1//EN" "http://www.w3.org/Graphics/SVG/1.1/DTD/svg11.dtd">
<svg version="1.1" xmlns="http://www.w3.org/2000/svg" xmlns:xlink="http://www.w3.org/1999/xlink" x="0px" y="0px" width="100px"
	 height="100px" viewBox="0 0 100 100" enable-background="new 0 0 100 100" xml:space="preserve">
<g id="Layer_1" display="none">
	<path display="inline" fill-rule="evenodd" clip-rule="evenodd" fill="#ADADAD" d="M50,23.366c6.787,0,12.932,2.753,17.381,7.201
		c4.447,4.448,7.198,10.593,7.198,17.38c0,3.813-0.872,7.429-2.425,10.653c-1.552,3.223-3.787,6.055-6.516,8.307v6.664
		c0,1.402-0.57,2.674-1.492,3.596c-0.481,0.482-1.061,0.867-1.701,1.127v8.422c0,1.4-0.572,2.674-1.492,3.596
		c-0.921,0.92-2.194,1.492-3.596,1.492h-1.951v3.205c0,0.467-0.379,0.85-0.848,0.85H45.44c-0.469,0-0.847-0.383-0.847-0.85v-3.205
		h-1.951c-1.397,0-2.668-0.572-3.592-1.492l-0.002-0.004h-0.002l-0.008-0.008c-0.917-0.924-1.484-2.191-1.484-3.584v-2.227v-6.197
		c-0.639-0.258-1.214-0.645-1.696-1.125l-0.003-0.002v-0.002l-0.009-0.008c-0.917-0.924-1.484-2.189-1.484-3.584v-6.664
		c-2.729-2.252-4.964-5.086-6.517-8.307c-1.554-3.225-2.425-6.84-2.425-10.653c0-6.787,2.75-12.932,7.199-17.38
		C37.068,26.119,43.213,23.366,50,23.366L50,23.366z M27.205,23.953l-6.979-6.979c-0.33-0.33-0.867-0.33-1.197,0
		c-0.332,0.331-0.332,0.869,0,1.199l6.979,6.98c0.331,0.33,0.869,0.33,1.198,0C27.537,24.821,27.537,24.283,27.205,23.953
		L27.205,23.953z M73.994,25.152l6.979-6.98c0.33-0.33,0.33-0.868,0-1.199c-0.331-0.33-0.869-0.33-1.199,0l-6.979,6.979
		c-0.33,0.33-0.33,0.868,0,1.2C73.125,25.482,73.662,25.482,73.994,25.152L73.994,25.152z M16.917,47.099
		c0.468,0,0.849,0.379,0.849,0.846c0,0.47-0.381,0.848-0.849,0.848H7.046c-0.468,0-0.848-0.377-0.848-0.848
		c0-0.467,0.38-0.846,0.848-0.846H16.917L16.917,47.099z M83.084,48.792c-0.469,0-0.848-0.377-0.848-0.848
		c0-0.467,0.379-0.846,0.848-0.846h9.87c0.469,0,0.849,0.379,0.849,0.846c0,0.47-0.38,0.848-0.849,0.848H83.084L83.084,48.792z
		 M50.849,14.863c0,0.468-0.38,0.848-0.849,0.848s-0.848-0.379-0.848-0.848V4.991c0-0.467,0.379-0.848,0.848-0.848
		s0.849,0.381,0.849,0.848V14.863L50.849,14.863z M39.251,83.641H60.75v-4.982h-0.198h-3.123H42.571H39.45h-0.199V83.641
		L39.251,83.641z M60.75,85.336H39.251v1.379c0,0.936,0.381,1.783,0.993,2.396l0.003,0.002c0.612,0.613,1.46,0.992,2.396,0.992
		h2.798h9.118h2.799c0.935,0,1.783-0.381,2.396-0.994s0.996-1.463,0.996-2.396V85.336L60.75,85.336z M56.581,57.422l-0.002-0.043
		v-4.408h-5.73v4.408c0,0.469-0.38,0.848-0.849,0.848s-0.848-0.379-0.848-0.848v-4.408h-5.733v4.408v0.031v19.553h13.162V57.422
		L56.581,57.422z M56.579,51.275v-4.408c0-0.468,0.382-0.848,0.849-0.848c0.468,0,0.848,0.379,0.848,0.848v5.211l0.002,0.045v24.84
		h2.274c0.933,0,1.78-0.383,2.394-0.996c0.615-0.615,0.996-1.461,0.996-2.396v-7.066h0.002c0-0.248,0.111-0.494,0.32-0.66
		c2.678-2.137,4.865-4.861,6.367-7.979c1.442-2.998,2.253-6.363,2.253-9.919c0-6.318-2.562-12.04-6.702-16.182
		c-4.14-4.141-9.863-6.701-16.182-6.701c-6.32,0-12.04,2.56-16.182,6.701c-4.14,4.141-6.702,9.864-6.702,16.182
		c0,3.556,0.809,6.921,2.253,9.917c1.496,3.104,3.67,5.816,6.329,7.949c0.218,0.154,0.359,0.406,0.359,0.691v7.066
		c0,0.938,0.38,1.785,0.992,2.396l0.003,0.004c0.614,0.611,1.46,0.992,2.397,0.992h2.273v-24.84V52.09v-5.223
		c0-0.468,0.381-0.848,0.848-0.848c0.469,0,0.848,0.379,0.848,0.848v4.408h5.733v-4.408c0-0.468,0.379-0.848,0.848-0.848
		s0.849,0.379,0.849,0.848v4.408H56.579L56.579,51.275z M53.713,91.803h-7.425v2.355h7.425V91.803z"/>
</g>
<g id="Layer_2" display="none">
	<path display="inline" fill-rule="evenodd" clip-rule="evenodd" fill="#F48453" d="M48.893,22.601L34.425,47.656L17.987,76.121
		l-0.019,0.031c-0.104,0.194-0.157,0.401-0.157,0.606c0,0.22,0.06,0.439,0.175,0.641h0.001c0.121,0.209,0.281,0.372,0.463,0.478
		l0.002,0.001l0.001-0.001c0.182,0.106,0.402,0.162,0.643,0.162h61.806c0.241,0,0.462-0.056,0.644-0.161v-0.001
		c0.188-0.108,0.35-0.271,0.466-0.474l0.003-0.004h-0.003c0.118-0.204,0.179-0.422,0.179-0.641c0-0.215-0.061-0.434-0.179-0.638
		l-0.022-0.044L51.114,22.6v0.001c-0.122-0.209-0.28-0.372-0.464-0.477c-0.185-0.106-0.404-0.163-0.646-0.163
		s-0.46,0.057-0.644,0.163l-0.036,0.019C49.155,22.249,49.009,22.402,48.893,22.601L48.893,22.601z M53.405,64.667v5.665
		c0,0.433-0.353,0.784-0.786,0.784h-5.211c-0.433,0-0.785-0.352-0.785-0.784v-5.665c0-0.436,0.353-0.787,0.785-0.787h5.211
		C53.053,63.88,53.405,64.231,53.405,64.667L53.405,64.667z M51.834,69.546h-3.64v-4.095h3.64V69.546L51.834,69.546z M53.656,39.522
		l-0.379,20.564c-0.006,0.43-0.354,0.771-0.783,0.771v0.003h-5.045c-0.434,0-0.786-0.353-0.786-0.786l0.003-0.056l-0.323-20.568
		c-0.007-0.432,0.338-0.788,0.771-0.795h0.012v-0.003h5.75c0.434,0,0.786,0.352,0.786,0.787
		C53.661,39.467,53.659,39.496,53.656,39.522L53.656,39.522z M51.727,59.29H48.22l-0.299-19.065h4.157L51.727,59.29L51.727,59.29z
		 M33.068,46.87l14.468-25.056c0.249-0.428,0.585-0.772,0.987-1.018l0.05-0.031c0.427-0.246,0.913-0.377,1.43-0.377
		c0.515,0,0.998,0.131,1.425,0.377c0.426,0.246,0.783,0.602,1.041,1.049l-0.002,0.001l0.002,0.001l30.876,53.481l0.024,0.037
		c0.261,0.452,0.391,0.939,0.391,1.424c0,0.488-0.13,0.977-0.391,1.427l-0.002-0.001c-0.26,0.45-0.616,0.807-1.035,1.049
		l-0.002-0.001l-0.003,0.001c-0.425,0.246-0.911,0.378-1.426,0.378H19.097c-0.516,0-1.002-0.132-1.429-0.378l0.001-0.001
		c-0.425-0.245-0.781-0.601-1.041-1.047l0.003-0.001l-0.003-0.003c-0.259-0.451-0.391-0.938-0.391-1.423
		c0-0.467,0.123-0.932,0.364-1.372l0.027-0.052L33.068,46.87z"/>
</g>
<g id="Layer_3" display="none">
	<path display="inline" fill-rule="evenodd" clip-rule="evenodd" fill="#ADADAD" d="M81.386,49.269l1.485-3.348l-10.717,0.014
		c-0.641,0-1.236,0.178-1.73,0.5c-0.474,0.308-0.854,0.748-1.096,1.291l-0.688,1.543H81.386L81.386,49.269z M67.327,50.724
		l1.015,2.279c0.355,0.801,0.904,1.441,1.578,1.878c0.65,0.422,1.422,0.653,2.25,0.651l1.013-0.002
		c-1.267,6.413-4.699,12.052-9.502,16.118c-4.937,4.178-11.322,6.697-18.3,6.697c-7.829,0-14.919-3.173-20.049-8.302
		c-5.129-5.126-8.302-12.211-8.302-20.039c0-7.83,3.173-14.918,8.303-20.047c5.13-5.132,12.219-8.305,20.048-8.305
		c6.978,0,13.364,2.521,18.3,6.698c4.804,4.067,8.235,9.707,9.503,16.125h-1.029c-0.826,0.002-1.596,0.233-2.244,0.654
		c-0.67,0.438-1.217,1.076-1.571,1.875l-1.011,2.267l-3.613,0.002c0.064-0.117,0.096-0.252,0.089-0.395
		c-0.29-4.854-2.456-9.201-5.778-12.328c-3.307-3.109-7.756-5.015-12.651-5.015c-5.098,0-9.715,2.066-13.056,5.407
		c-3.34,3.341-5.407,7.956-5.407,13.054c0,5.1,2.067,9.716,5.407,13.057c3.341,3.341,7.958,5.408,13.056,5.408
		c4.893,0,9.342-1.904,12.646-5.014c3.325-3.126,5.49-7.473,5.782-12.323c0.008-0.146-0.027-0.284-0.094-0.401L67.327,50.724
		L67.327,50.724z M62.445,50.725l-9.16,0.003c0.078,0.137,0.113,0.298,0.088,0.465c-0.291,1.962-1.287,3.696-2.724,4.932
		c-1.417,1.223-3.262,1.961-5.276,1.961c-2.229,0-4.251-0.904-5.714-2.368l-0.001,0.001c-1.463-1.462-2.369-3.484-2.369-5.717
		c0-2.231,0.906-4.252,2.369-5.715c1.463-1.466,3.485-2.373,5.715-2.373c2.015,0,3.862,0.741,5.28,1.965
		c1.436,1.238,2.432,2.975,2.722,4.939c0.023,0.165-0.011,0.324-0.086,0.46l9.153-0.003c-0.052-0.092-0.083-0.197-0.089-0.311
		c-0.269-4.468-2.263-8.473-5.324-11.354c-3.043-2.862-7.144-4.617-11.655-4.617c-4.696,0-8.949,1.904-12.026,4.98
		c-3.078,3.078-4.981,7.33-4.981,12.025c0,4.698,1.904,8.95,4.981,12.027s7.33,4.98,12.026,4.98c4.51,0,8.61-1.752,11.652-4.614
		c3.063-2.881,5.057-6.886,5.327-11.352C62.358,50.926,62.394,50.819,62.445,50.725L62.445,50.725z M52.02,50.728l-7.087,0.005
		c-0.399,0-0.726-0.325-0.726-0.727c0-0.399,0.326-0.724,0.726-0.724l7.087-0.003c-0.041-0.075-0.071-0.161-0.086-0.252
		c-0.234-1.612-1.053-3.037-2.232-4.052c-1.159-1.001-2.672-1.605-4.329-1.605c-1.832,0-3.49,0.741-4.686,1.938
		c-1.199,1.2-1.942,2.858-1.942,4.692c0,1.83,0.743,3.489,1.942,4.688l-0.001,0.001l0.001,0.002
		c1.197,1.197,2.854,1.938,4.686,1.938c1.655,0,3.167-0.604,4.326-1.604c1.177-1.014,1.996-2.436,2.234-4.046
		C51.948,50.891,51.977,50.805,52.02,50.728L52.02,50.728z M82.374,49.995l1.979,4.426c0.156,0.35,0.062,0.797-0.213,0.996
		c-0.102,0.075-0.214,0.104-0.323,0.096l-9.153,0.016c-1.288,6.863-4.927,12.896-10.044,17.229
		c-5.191,4.395-11.906,7.044-19.239,7.044c-8.226,0-15.679-3.336-21.073-8.729c-5.396-5.394-8.735-12.844-8.735-21.068
		c0-8.232,3.336-15.684,8.729-21.076c5.395-5.396,12.849-8.73,21.079-8.73c7.333,0,14.047,2.649,19.239,7.045
		c5.117,4.333,8.754,10.366,10.043,17.231l9.164-0.013c0.103-0.005,0.208,0.025,0.305,0.095c0.273,0.198,0.369,0.644,0.214,0.995
		L82.374,49.995L82.374,49.995z M72.17,54.076l10.706-0.02l-1.489-3.329l-12.744,0.006l0.689,1.55
		c0.242,0.545,0.625,0.986,1.099,1.295C70.928,53.898,71.524,54.076,72.17,54.076z"/>
</g>
<g id="Layer_4" display="none">
	<path display="inline" fill-rule="evenodd" clip-rule="evenodd" fill="#F2723B" d="M34.775,59.715l12.094-15.658
		c0.165-0.215,0.417-0.324,0.668-0.313l14.197-0.013l4.275-7.565l-1.373,0.675c-0.398,0.194-0.882,0.031-1.076-0.369l-2.967-6.054
		c-0.194-0.388-0.039-0.859,0.34-1.063l0,0l19.277-10.361c0.393-0.21,0.885-0.063,1.094,0.331c0.068,0.121,0.096,0.251,0.096,0.381
		h0.004v21.908c0,0.449-0.363,0.809-0.809,0.809h-0.037l-6.674,0.235c-0.446,0.016-0.818-0.331-0.831-0.775l-0.045-1.154
		l-6.237,10.958c-0.156,0.271-0.442,0.42-0.735,0.408l-14.833,0.025L41.385,64.82c-0.473,0.617-1.157,0.984-1.876,1.076
		c-0.72,0.092-1.474-0.09-2.091-0.566l-2.135-1.648l0,0c-0.617-0.477-0.979-1.16-1.071-1.879
		C34.12,61.086,34.297,60.33,34.775,59.715L34.775,59.715L34.775,59.715z M82.037,71.762h-53.8V17.963
		c0-0.445-0.363-0.809-0.809-0.809c-0.447,0-0.81,0.363-0.81,0.809v53.798h-8.654c-0.448,0-0.81,0.363-0.81,0.813
		c0,0.445,0.361,0.807,0.81,0.807h8.654v8.656c0,0.445,0.362,0.809,0.81,0.809c0.445,0,0.809-0.363,0.809-0.809v-8.656h53.8
		c0.445,0,0.809-0.361,0.809-0.807C82.846,72.125,82.482,71.762,82.037,71.762L82.037,71.762z M47.906,45.356L36.06,60.686
		l-0.01,0.016c-0.203,0.266-0.279,0.59-0.237,0.9c0.037,0.303,0.193,0.596,0.454,0.799l0.007,0.006l2.131,1.648
		c0.264,0.203,0.592,0.281,0.9,0.24c0.306-0.037,0.602-0.191,0.805-0.457l10.056-13.017h0.004c0.146-0.19,0.375-0.314,0.636-0.314
		L65.6,50.483l7.412-13.023c0.137-0.234,0.385-0.396,0.675-0.406c0.446-0.017,0.82,0.334,0.837,0.775l0.111,3.19l5.15-0.184V21.058
		l-17.404,9.35l2.271,4.632l2.986-1.464l0,0c0.229-0.114,0.51-0.114,0.748,0.022c0.388,0.217,0.525,0.709,0.307,1.095l-5.77,10.208
		c-0.133,0.265-0.403,0.442-0.718,0.442L47.906,45.356z"/>
</g>
<g id="Layer_5" display="none">
	<g display="inline">
		<path fill-rule="evenodd" clip-rule="evenodd" fill="#ADADAD" d="M86.831,30.597h-28.45v5.02c2.121,1.461,3.898,3.458,5.166,5.814
			c1.353,2.518,2.13,5.445,2.13,8.568c0,3.122-0.777,6.051-2.13,8.569c-1.268,2.357-3.045,4.354-5.166,5.814v5.023h28.45V30.597
			L86.831,30.597z M9.556,23.447h33.219h14.454h33.216c0.829,0,1.583,0.335,2.126,0.883c0.544,0.544,0.883,1.299,0.883,2.126v47.089
			c0,0.83-0.339,1.58-0.883,2.129c-0.017,0.018-0.037,0.033-0.054,0.047c-0.542,0.518-1.271,0.832-2.072,0.832H57.229H42.774H9.556
			c-0.825,0-1.578-0.338-2.123-0.879L7.43,75.666c-0.545-0.545-0.883-1.295-0.883-2.121V26.456c0-0.827,0.338-1.579,0.883-2.123
			l0.003-0.003H7.43C7.974,23.782,8.728,23.447,9.556,23.447L9.556,23.447z M90.444,25.165c0.354,0,0.68,0.146,0.912,0.379
			c0.229,0.232,0.38,0.557,0.38,0.912v47.089c0,0.354-0.15,0.676-0.38,0.912l-0.033,0.033c-0.23,0.213-0.542,0.346-0.879,0.346
			H58.092v-3.713h29.602c0.473,0,0.855-0.385,0.855-0.861V29.735c0-0.474-0.383-0.858-0.855-0.858H58.092v-3.712H90.444
			L90.444,25.165z M41.912,25.165H9.556c-0.355,0-0.676,0.146-0.909,0.379L8.643,25.54c-0.229,0.236-0.378,0.559-0.378,0.916v47.089
			c0,0.354,0.148,0.678,0.378,0.912c0.233,0.232,0.558,0.379,0.913,0.379h32.356v-3.713H12.311c-0.477,0-0.858-0.385-0.858-0.861
			V29.735c0-0.474,0.382-0.858,0.858-0.858h29.602V25.165L41.912,25.165z M50.859,25.165v49.671h5.511V64.109V35.887V25.165H50.859
			L50.859,25.165z M49.139,74.836V25.165h-5.506v10.723v28.222v10.727H49.139L49.139,74.836z M78.484,46.754
			c0.899,0,1.714,0.365,2.302,0.957c0.589,0.589,0.954,1.403,0.954,2.303c0,0.896-0.365,1.71-0.954,2.3l0,0
			c-0.588,0.588-1.402,0.953-2.302,0.953c-0.898,0-1.713-0.365-2.305-0.953l-0.052-0.057c-0.557-0.582-0.903-1.376-0.903-2.244
			c0-0.899,0.369-1.714,0.955-2.303C76.771,47.12,77.586,46.754,78.484,46.754L78.484,46.754z M79.57,48.928
			c0.275,0.273,0.453,0.66,0.453,1.086c0,0.429-0.174,0.811-0.45,1.085v0.002L79.57,51.1c-0.277,0.279-0.664,0.451-1.086,0.451
			c-0.426,0-0.811-0.172-1.089-0.451l-0.036-0.035c-0.254-0.27-0.413-0.642-0.413-1.05c0-0.426,0.173-0.813,0.449-1.086
			c0.278-0.28,0.663-0.453,1.089-0.453C78.906,48.475,79.293,48.648,79.57,48.928L79.57,48.928z M21.52,46.754
			c-0.87,0-1.664,0.345-2.248,0.906l-0.055,0.051c-0.588,0.589-0.957,1.403-0.957,2.303c0,0.892,0.365,1.703,0.951,2.294
			l0.006,0.004v0.002h0.003c0.588,0.592,1.402,0.953,2.3,0.953c0.898,0,1.714-0.365,2.301-0.953c0.589-0.588,0.953-1.402,0.953-2.3
			c0-0.899-0.364-1.714-0.953-2.303l-0.003,0.003C23.229,47.124,22.415,46.754,21.52,46.754L21.52,46.754z M22.604,48.921
			c-0.274-0.273-0.659-0.446-1.085-0.446c-0.409,0-0.781,0.159-1.052,0.413l-0.034,0.04c-0.281,0.273-0.449,0.66-0.449,1.086
			c0,0.429,0.168,0.811,0.442,1.085l0.007,0.006c0.273,0.273,0.659,0.445,1.086,0.445c0.426,0,0.808-0.172,1.087-0.451
			c0.278-0.279,0.45-0.661,0.45-1.085c0-0.426-0.172-0.813-0.452-1.086l0.002-0.003L22.604,48.921L22.604,48.921z M19.211,52.309
			L19.22,51.1C18.885,51.434,18.883,51.971,19.211,52.309L19.211,52.309z M16.434,65.33h10.169c0.478,0,0.859-0.383,0.859-0.857
			c0-0.479-0.382-0.859-0.859-0.859H16.434c-0.473,0-0.861,0.381-0.861,0.859C15.572,64.947,15.961,65.33,16.434,65.33L16.434,65.33
			z M73.4,65.33c-0.477,0-0.862-0.383-0.862-0.857c0-0.479,0.386-0.859,0.862-0.859h10.168c0.473,0,0.858,0.381,0.858,0.859
			c0,0.475-0.386,0.857-0.858,0.857H73.4L73.4,65.33z M73.4,36.39c-0.477,0-0.862-0.389-0.862-0.862
			c0-0.473,0.386-0.861,0.862-0.861h10.168c0.473,0,0.858,0.389,0.858,0.861c0,0.474-0.386,0.862-0.858,0.862H73.4L73.4,36.39z
			 M16.434,36.39h10.169c0.478,0,0.859-0.389,0.859-0.862c0-0.473-0.382-0.861-0.859-0.861H16.434c-0.473,0-0.861,0.389-0.861,0.861
			C15.572,36.001,15.961,36.39,16.434,36.39L16.434,36.39z M58.381,37.763c1.471,1.214,2.715,2.734,3.655,4.482
			c1.22,2.268,1.924,4.918,1.924,7.754c0,2.833-0.704,5.487-1.927,7.758c-0.938,1.744-2.182,3.27-3.652,4.479V37.763L58.381,37.763z
			 M41.622,37.763c-1.471,1.214-2.715,2.734-3.654,4.482c-1.22,2.268-1.924,4.922-1.924,7.754c0,2.833,0.704,5.487,1.924,7.758
			c0.939,1.744,2.184,3.27,3.654,4.479V37.763L41.622,37.763z M36.457,41.431c1.267-2.36,3.042-4.357,5.165-5.818v-5.016H13.169
			v38.809h28.453v-5.023c-2.123-1.457-3.898-3.457-5.165-5.814c-1.356-2.518-2.134-5.447-2.134-8.569
			C34.323,46.876,35.101,43.946,36.457,41.431z"/>
	</g>
</g>
<g id="Layer_6" display="none">
	<path display="inline" fill-rule="evenodd" clip-rule="evenodd" fill="#F2723B" d="M61.111,71.354l-11.168-9.297l-11.07,9.297
		H61.111L61.111,71.354z M43.833,47.557l-11.703-9.67c-0.559-0.462-0.991-1.01-1.28-1.628c-0.292-0.621-0.444-1.299-0.444-2.026
		v-1.773v-7.401h-5.192c-0.434,0-0.792-0.354-0.792-0.79v-8.454c0-0.438,0.357-0.793,0.792-0.793h49.575
		c0.434,0,0.793,0.354,0.793,0.793v8.454c0,0.436-0.359,0.79-0.793,0.79h-5.195v7.401v1.773c0,0.728-0.148,1.405-0.441,2.026
		c-0.289,0.618-0.721,1.166-1.281,1.628l-11.701,9.67c-0.383,0.314-0.668,0.681-0.861,1.085c-0.189,0.403-0.285,0.86-0.285,1.352
		c0,0.497,0.096,0.95,0.285,1.354c0.193,0.404,0.479,0.771,0.861,1.086l11.701,9.668c0.561,0.461,0.992,1.012,1.281,1.629
		c0.293,0.623,0.441,1.303,0.441,2.027v1.773v7.41h5.195c0.434,0,0.793,0.355,0.793,0.789v8.459c0,0.436-0.359,0.789-0.793,0.789
		H25.212c-0.434,0-0.792-0.354-0.792-0.789V75.73c0-0.434,0.357-0.789,0.792-0.789h5.192v-7.41v-1.773
		c0-0.725,0.153-1.404,0.444-2.023V63.73l0,0c0.29-0.617,0.721-1.168,1.28-1.629l11.703-9.668c0.378-0.314,0.667-0.682,0.86-1.086
		c0.189-0.404,0.286-0.857,0.286-1.354c0-0.491-0.097-0.944-0.286-1.352C44.5,48.238,44.21,47.872,43.833,47.557L43.833,47.557z
		 M33.137,36.673c-0.383-0.317-0.672-0.681-0.86-1.088c-0.19-0.401-0.29-0.858-0.29-1.353v-1.773v-7.401H68.01v7.401v1.773
		c0,0.494-0.096,0.951-0.287,1.353c-0.191,0.407-0.477,0.771-0.859,1.088l-11.701,9.666c-0.561,0.464-0.992,1.01-1.281,1.629
		c-0.293,0.621-0.441,1.301-0.441,2.025c0,0.724,0.148,1.407,0.441,2.026c0.289,0.619,0.721,1.166,1.281,1.627l11.705,9.672
		c0.379,0.313,0.664,0.68,0.855,1.088c0.191,0.4,0.287,0.855,0.287,1.352v1.773v7.402H31.987v-7.402v-1.773
		c0-0.496,0.1-0.951,0.286-1.352h0.003c0.188-0.408,0.478-0.775,0.86-1.088l11.702-9.672c0.56-0.461,0.988-1.008,1.281-1.627
		c0.289-0.619,0.44-1.299,0.44-2.026c0-0.725-0.151-1.404-0.44-2.023c-0.293-0.621-0.721-1.167-1.281-1.628L33.137,36.673
		L33.137,36.673z M50,46.383L64.57,34.348v-2.094H35.43v2.094L50,46.383L50,46.383z M65.863,35.327
		c0.189-0.154,0.285-0.381,0.285-0.608h0.004v-3.257c0-0.435-0.354-0.789-0.793-0.789H34.637c-0.435,0-0.789,0.354-0.789,0.789
		v3.257c0,0.261,0.124,0.491,0.317,0.634l15.331,12.665c0.295,0.246,0.721,0.236,1.007,0l0.002-0.003l0.003-0.003L65.863,35.327
		L65.863,35.327z M73.998,76.52H26.001V83.4h47.997V76.52L73.998,76.52z M73.998,16.599H26.001v6.877h5.196h37.605h5.195V16.599
		L73.998,16.599z M50.444,60.426l13.292,11.068c0.209,0.139,0.346,0.379,0.346,0.652c0,0.434-0.354,0.789-0.793,0.789H36.707v-0.004
		c-0.227,0-0.447-0.094-0.606-0.283c-0.276-0.332-0.233-0.83,0.1-1.109l13.236-11.113v0.002
		C49.723,60.186,50.148,60.176,50.444,60.426z"/>
</g>
<g id="Layer_7" display="none">
	<g display="inline">
		<path fill-rule="evenodd" clip-rule="evenodd" fill="#A9A9A9" d="M48.893,21.346L34.425,46.4L17.987,74.866l-0.019,0.031
			c-0.104,0.195-0.157,0.401-0.157,0.607c0,0.219,0.06,0.439,0.175,0.641h0.001c0.121,0.209,0.281,0.371,0.463,0.477l0.002,0.002
			l0.001-0.002c0.183,0.106,0.402,0.162,0.643,0.162h61.805c0.242,0,0.463-0.056,0.645-0.16v-0.002
			c0.188-0.107,0.35-0.27,0.465-0.474l0.004-0.003h-0.004c0.119-0.205,0.18-0.424,0.18-0.641c0-0.216-0.061-0.435-0.18-0.639
			l-0.021-0.044L51.113,21.344v0.002c-0.121-0.21-0.279-0.372-0.462-0.477c-0.186-0.106-0.404-0.163-0.646-0.163
			s-0.46,0.057-0.644,0.163l-0.036,0.019C49.155,20.994,49.009,21.147,48.893,21.346L48.893,21.346z M33.068,45.615L47.537,20.56
			c0.249-0.428,0.585-0.773,0.987-1.018l0.05-0.031c0.427-0.246,0.913-0.378,1.43-0.378c0.515,0,0.998,0.132,1.425,0.378
			c0.426,0.246,0.783,0.602,1.041,1.049l-0.002,0.001l0.002,0.001l30.875,53.48l0.025,0.039c0.26,0.451,0.391,0.938,0.391,1.424
			c0,0.488-0.131,0.975-0.391,1.426l-0.002-0.001c-0.26,0.45-0.617,0.807-1.037,1.05v-0.002l-0.004,0.002
			c-0.424,0.246-0.91,0.377-1.426,0.377H19.097c-0.516,0-1.002-0.131-1.429-0.377l0.001-0.002c-0.425-0.246-0.781-0.602-1.041-1.047
			l0.003-0.001l-0.003-0.003c-0.259-0.451-0.391-0.938-0.391-1.422c0-0.467,0.122-0.933,0.364-1.373l0.027-0.051L33.068,45.615z"/>
		<g>
			<path fill="none" stroke="#A9A9A9" stroke-width="1.3159" stroke-miterlimit="10" d="M50.494,41.003
				c1.635,0,3.168,0.347,4.6,1.039c1.431,0.693,2.589,1.69,3.475,2.99c0.886,1.301,1.329,2.856,1.329,4.665
				c0,1.103-0.252,2.064-0.757,2.884c-0.504,0.82-1.131,1.556-1.88,2.205c-0.75,0.651-1.492,1.251-2.229,1.803
				c-0.735,0.552-1.349,1.089-1.84,1.611c-0.49,0.523-0.723,1.096-0.695,1.718l0.041,0.891h-5.192v-1.697
				c0-0.621,0.238-1.215,0.716-1.781c0.477-0.564,1.069-1.123,1.778-1.674c0.708-0.552,1.424-1.117,2.146-1.697
				c0.722-0.578,1.322-1.172,1.799-1.781c0.477-0.607,0.716-1.25,0.716-1.929c0-1.159-0.443-2.106-1.329-2.841
				c-0.886-0.735-2.051-1.103-3.496-1.103c-1.417,0-2.719,0.275-3.904,0.827c-1.186,0.551-2.269,1.42-3.25,2.608v-5.598
				c0.845-0.904,1.942-1.654,3.291-2.248C47.162,41.3,48.722,41.003,50.494,41.003z M50.126,64.031c0.899,0,1.669,0.332,2.31,0.996
				c0.641,0.665,0.961,1.463,0.961,2.396s-0.32,1.732-0.961,2.396s-1.41,0.996-2.31,0.996s-1.67-0.332-2.31-0.996
				c-0.641-0.664-0.961-1.463-0.961-2.396s0.32-1.731,0.961-2.396C48.456,64.363,49.227,64.031,50.126,64.031z"/>
		</g>
	</g>
</g>
<g id="Layer_8" display="none">
	<path display="inline" fill-rule="evenodd" clip-rule="evenodd" fill="#EE723B" d="M50,23.366c6.787,0,12.931,2.753,17.38,7.2
		c4.447,4.448,7.197,10.593,7.197,17.38c0,3.813-0.871,7.427-2.424,10.652c-1.553,3.224-3.787,6.055-6.516,8.308v6.664
		c0,1.402-0.57,2.674-1.492,3.595c-0.482,0.483-1.061,0.868-1.701,1.127v8.423c0,1.4-0.572,2.673-1.492,3.596
		c-0.922,0.92-2.195,1.49-3.596,1.49h-1.951v3.207c0,0.467-0.379,0.849-0.848,0.849H45.44c-0.468,0-0.846-0.382-0.846-0.849v-3.207
		h-1.952c-1.397,0-2.667-0.57-3.591-1.49l-0.001-0.004h-0.002l-0.008-0.008c-0.917-0.924-1.484-2.191-1.484-3.584v-2.227V78.29
		c-0.639-0.257-1.214-0.644-1.696-1.125l-0.003-0.001v-0.002l-0.008-0.009c-0.917-0.923-1.485-2.189-1.485-3.583v-6.664
		c-2.728-2.253-4.964-5.086-6.517-8.308c-1.554-3.226-2.425-6.84-2.425-10.652c0-6.787,2.75-12.932,7.199-17.38
		C37.068,26.119,43.213,23.366,50,23.366L50,23.366z M27.205,23.953l-6.979-6.979c-0.33-0.33-0.868-0.33-1.198,0
		c-0.332,0.331-0.332,0.869,0,1.198l6.979,6.98c0.331,0.33,0.869,0.33,1.198,0C27.538,24.82,27.538,24.283,27.205,23.953
		L27.205,23.953z M73.994,25.152l6.979-6.98c0.33-0.329,0.33-0.867,0-1.198c-0.33-0.33-0.869-0.33-1.199,0l-6.979,6.979
		c-0.33,0.33-0.33,0.867,0,1.199C73.125,25.482,73.662,25.482,73.994,25.152L73.994,25.152z M16.917,47.099
		c0.469,0,0.85,0.38,0.85,0.847c0,0.47-0.381,0.848-0.85,0.848h-9.87c-0.469,0-0.848-0.378-0.848-0.848
		c0-0.467,0.379-0.847,0.848-0.847H16.917L16.917,47.099z M83.084,48.793c-0.469,0-0.848-0.378-0.848-0.848
		c0-0.467,0.379-0.847,0.848-0.847h9.869c0.469,0,0.848,0.38,0.848,0.847c0,0.47-0.379,0.848-0.848,0.848H83.084L83.084,48.793z
		 M50.848,14.863c0,0.468-0.379,0.848-0.848,0.848s-0.848-0.38-0.848-0.848V4.991c0-0.468,0.379-0.848,0.848-0.848
		s0.848,0.38,0.848,0.848V14.863L50.848,14.863z M39.25,83.641h21.5v-4.982h-0.199h-3.123H42.571H39.45h-0.2V83.641L39.25,83.641z
		 M60.75,85.336h-21.5v1.379c0,0.936,0.381,1.783,0.994,2.396l0.003,0.003c0.612,0.613,1.46,0.992,2.395,0.992h2.798h9.118h2.799
		c0.934,0,1.783-0.381,2.396-0.995c0.613-0.613,0.996-1.462,0.996-2.396V85.336L60.75,85.336z M56.58,57.422l-0.002-0.044v-4.407
		h-5.73v4.407c0,0.469-0.379,0.849-0.848,0.849s-0.848-0.38-0.848-0.849v-4.407h-5.733v4.407v0.032v19.552H56.58V57.422
		L56.58,57.422z M56.578,51.274v-4.407c0-0.468,0.383-0.848,0.85-0.848s0.848,0.38,0.848,0.848v5.21l0.002,0.045v24.84h2.273
		c0.934,0,1.781-0.382,2.395-0.995c0.615-0.615,0.996-1.461,0.996-2.396v-7.066h0.002c0-0.249,0.111-0.494,0.32-0.661
		c2.678-2.136,4.865-4.862,6.367-7.978c1.441-2.998,2.252-6.363,2.252-9.919c0-6.318-2.561-12.039-6.703-16.182
		c-4.139-4.141-9.861-6.701-16.179-6.701c-6.32,0-12.04,2.561-16.182,6.701c-4.139,4.141-6.702,9.863-6.702,16.182
		c0,3.556,0.809,6.921,2.252,9.917c1.496,3.103,3.67,5.816,6.33,7.949c0.218,0.154,0.359,0.406,0.359,0.691v7.066
		c0,0.938,0.379,1.785,0.992,2.396l0.003,0.004c0.614,0.611,1.46,0.991,2.397,0.991h2.273v-24.84v-0.033v-5.222
		c0-0.468,0.381-0.848,0.848-0.848c0.469,0,0.848,0.38,0.848,0.848v4.407h5.733v-4.407c0-0.468,0.379-0.848,0.848-0.848
		s0.848,0.38,0.848,0.848v4.407H56.578L56.578,51.274z M53.713,91.801h-7.425v2.357h7.425V91.801z"/>
</g>
<g id="Layer_9" display="none">
	<path display="inline" fill-rule="evenodd" clip-rule="evenodd" fill="#A9A9A9" d="M81.385,49.269l1.486-3.348l-10.717,0.014
		c-0.643,0-1.236,0.178-1.731,0.5c-0.474,0.308-0.853,0.748-1.095,1.291l-0.688,1.543H81.385L81.385,49.269z M67.326,50.724
		l1.015,2.279c0.356,0.801,0.904,1.441,1.578,1.878c0.651,0.422,1.423,0.653,2.251,0.651l1.012-0.002
		c-1.267,6.413-4.699,12.052-9.502,16.118c-4.936,4.178-11.322,6.697-18.299,6.697c-7.829,0-14.919-3.173-20.049-8.302
		c-5.129-5.126-8.302-12.211-8.302-20.039c0-7.83,3.172-14.918,8.303-20.047c5.13-5.132,12.219-8.305,20.048-8.305
		c6.977,0,13.363,2.521,18.299,6.698c4.805,4.067,8.235,9.707,9.504,16.125h-1.029c-0.826,0.002-1.596,0.233-2.244,0.654
		c-0.671,0.438-1.217,1.076-1.572,1.875l-1.01,2.267l-3.614,0.002c0.064-0.117,0.097-0.252,0.089-0.395
		c-0.29-4.854-2.455-9.201-5.777-12.328c-3.307-3.109-7.756-5.015-12.65-5.015c-5.098,0-9.715,2.066-13.056,5.407
		c-3.34,3.341-5.407,7.956-5.407,13.054c0,5.1,2.067,9.716,5.407,13.057c3.341,3.341,7.958,5.408,13.056,5.408
		c4.892,0,9.342-1.904,12.645-5.014c3.325-3.126,5.49-7.473,5.782-12.323c0.009-0.146-0.026-0.284-0.093-0.401L67.326,50.724
		L67.326,50.724z M62.444,50.725l-9.159,0.003c0.078,0.137,0.113,0.298,0.088,0.465c-0.291,1.962-1.289,3.696-2.724,4.932
		c-1.417,1.223-3.261,1.961-5.275,1.961c-2.229,0-4.251-0.904-5.714-2.368l-0.001,0.001c-1.463-1.462-2.369-3.484-2.369-5.717
		c0-2.231,0.906-4.252,2.369-5.715c1.463-1.466,3.485-2.373,5.716-2.373c2.015,0,3.862,0.741,5.279,1.965
		c1.435,1.238,2.431,2.975,2.721,4.939c0.024,0.165-0.011,0.324-0.086,0.46l9.153-0.003c-0.051-0.092-0.082-0.197-0.089-0.311
		c-0.269-4.468-2.263-8.473-5.323-11.354c-3.044-2.862-7.144-4.617-11.654-4.617c-4.697,0-8.949,1.904-12.026,4.98
		c-3.078,3.078-4.981,7.33-4.981,12.025c0,4.698,1.903,8.95,4.981,12.027c3.078,3.077,7.33,4.98,12.026,4.98
		c4.51,0,8.609-1.752,11.65-4.614c3.063-2.881,5.057-6.886,5.327-11.352C62.357,50.926,62.393,50.819,62.444,50.725L62.444,50.725z
		 M52.02,50.728l-7.087,0.005c-0.4,0-0.726-0.325-0.726-0.727c0-0.399,0.326-0.724,0.726-0.724l7.087-0.003
		c-0.042-0.075-0.072-0.161-0.086-0.252c-0.235-1.612-1.052-3.037-2.231-4.052c-1.159-1.001-2.672-1.605-4.329-1.605
		c-1.832,0-3.49,0.741-4.686,1.938c-1.2,1.2-1.942,2.858-1.942,4.692c0,1.83,0.742,3.489,1.942,4.688l-0.001,0.001l0.001,0.002
		c1.197,1.197,2.854,1.938,4.686,1.938c1.655,0,3.167-0.604,4.326-1.604c1.178-1.014,1.995-2.436,2.234-4.046
		C51.947,50.891,51.977,50.805,52.02,50.728L52.02,50.728z M82.373,49.995l1.979,4.426c0.156,0.35,0.063,0.797-0.213,0.996
		c-0.102,0.075-0.213,0.104-0.322,0.096l-9.154,0.016c-1.288,6.863-4.926,12.896-10.044,17.229
		c-5.19,4.395-11.905,7.044-19.237,7.044c-8.226,0-15.679-3.336-21.073-8.729c-5.396-5.394-8.735-12.844-8.735-21.068
		c0-8.232,3.336-15.684,8.729-21.076c5.395-5.396,12.849-8.73,21.079-8.73c7.332,0,14.046,2.649,19.237,7.045
		c5.118,4.333,8.755,10.366,10.043,17.231l9.165-0.013c0.102-0.005,0.207,0.025,0.305,0.095c0.273,0.198,0.368,0.644,0.213,0.995
		L82.373,49.995L82.373,49.995z M72.17,54.076l10.705-0.02l-1.488-3.329l-12.745,0.006l0.689,1.55
		c0.243,0.545,0.626,0.986,1.1,1.295C70.928,53.898,71.523,54.076,72.17,54.076z"/>
</g>
<g id="Layer_10" display="none">
	<path display="inline" fill-rule="evenodd" clip-rule="evenodd" fill="#EE723B" d="M61.111,71.354l-11.168-9.297l-11.07,9.297
		H61.111L61.111,71.354z M43.833,47.557l-11.703-9.67c-0.559-0.462-0.991-1.01-1.28-1.628c-0.292-0.621-0.444-1.299-0.444-2.026
		v-1.773v-7.402h-5.192c-0.434,0-0.792-0.354-0.792-0.789v-8.455c0-0.438,0.357-0.792,0.792-0.792h49.574
		c0.436,0,0.793,0.354,0.793,0.792v8.455c0,0.436-0.357,0.789-0.793,0.789h-5.194v7.402v1.773c0,0.728-0.149,1.405-0.441,2.026
		c-0.289,0.618-0.721,1.166-1.281,1.628l-11.701,9.67c-0.383,0.314-0.668,0.681-0.861,1.085c-0.189,0.403-0.285,0.86-0.285,1.352
		c0,0.497,0.096,0.95,0.285,1.354c0.193,0.404,0.479,0.771,0.861,1.086l11.701,9.668c0.561,0.461,0.992,1.012,1.281,1.629
		c0.292,0.623,0.441,1.303,0.441,2.027v1.773v7.41h5.194c0.436,0,0.793,0.355,0.793,0.789v8.459c0,0.436-0.357,0.789-0.793,0.789
		H25.212c-0.434,0-0.792-0.354-0.792-0.789V75.73c0-0.434,0.357-0.789,0.792-0.789h5.192v-7.41v-1.773
		c0-0.725,0.152-1.404,0.444-2.023V63.73l0,0c0.29-0.617,0.721-1.168,1.28-1.629l11.703-9.668c0.378-0.314,0.667-0.682,0.86-1.086
		c0.19-0.404,0.286-0.857,0.286-1.354c0-0.491-0.096-0.945-0.286-1.352C44.5,48.238,44.21,47.872,43.833,47.557L43.833,47.557z
		 M33.137,36.672c-0.383-0.316-0.672-0.681-0.861-1.087c-0.189-0.401-0.289-0.858-0.289-1.353v-1.773v-7.402H68.01v7.402v1.773
		c0,0.494-0.097,0.951-0.287,1.353c-0.192,0.406-0.478,0.771-0.859,1.087l-11.702,9.666c-0.56,0.464-0.991,1.01-1.28,1.63
		c-0.293,0.621-0.441,1.301-0.441,2.025c0,0.724,0.148,1.407,0.441,2.026c0.289,0.619,0.721,1.166,1.28,1.627l11.705,9.672
		c0.379,0.313,0.664,0.68,0.856,1.088c0.19,0.4,0.287,0.855,0.287,1.352v1.773v7.402H31.987v-7.402v-1.773
		c0-0.496,0.1-0.951,0.286-1.352h0.003c0.189-0.408,0.478-0.775,0.861-1.088l11.702-9.672c0.559-0.461,0.988-1.008,1.28-1.627
		c0.29-0.619,0.441-1.299,0.441-2.026c0-0.725-0.151-1.404-0.441-2.023c-0.292-0.622-0.721-1.168-1.28-1.628L33.137,36.672
		L33.137,36.672z M50,46.382L64.57,34.348v-2.094H35.43v2.094L50,46.382L50,46.382z M65.862,35.327
		c0.19-0.154,0.286-0.382,0.286-0.608h0.003v-3.257c0-0.436-0.354-0.789-0.792-0.789H34.637c-0.435,0-0.789,0.354-0.789,0.789v3.257
		c0,0.261,0.124,0.491,0.317,0.634l15.331,12.665c0.295,0.246,0.721,0.236,1.007,0l0.002-0.003l0.003-0.003L65.862,35.327
		L65.862,35.327z M73.997,76.52H26.001V83.4h47.996V76.52L73.997,76.52z M73.997,16.599H26.001v6.877h5.196h37.605h5.194V16.599
		L73.997,16.599z M50.444,60.426l13.292,11.068c0.209,0.139,0.346,0.379,0.346,0.652c0,0.434-0.354,0.789-0.793,0.789H36.707v-0.004
		c-0.227,0-0.447-0.094-0.606-0.283c-0.276-0.332-0.233-0.83,0.1-1.109l13.236-11.113v0.002
		C49.723,60.186,50.148,60.176,50.444,60.426z"/>
</g>
<g id="Layer_11">
	<path fill-rule="evenodd" clip-rule="evenodd" fill="#A9A9A9" d="M34.775,59.716l12.094-15.658
		c0.165-0.216,0.417-0.325,0.668-0.314l14.197-0.013l4.275-7.564l-1.374,0.674c-0.397,0.194-0.882,0.031-1.076-0.369l-2.967-6.054
		c-0.194-0.388-0.038-0.859,0.34-1.063l0,0l19.278-10.361c0.392-0.21,0.884-0.063,1.094,0.331c0.066,0.121,0.096,0.251,0.096,0.382
		h0.004v21.908c0,0.448-0.363,0.808-0.809,0.808h-0.038l-6.674,0.235c-0.446,0.017-0.818-0.331-0.831-0.775l-0.045-1.154
		l-6.236,10.959c-0.156,0.27-0.443,0.419-0.736,0.407l-14.833,0.024L41.385,64.82c-0.473,0.617-1.157,0.983-1.876,1.075
		c-0.72,0.094-1.474-0.088-2.091-0.565l-2.135-1.648l0,0c-0.617-0.477-0.979-1.16-1.071-1.88
		C34.12,61.086,34.297,60.329,34.775,59.716L34.775,59.716L34.775,59.716z M82.037,71.762h-53.8V17.963
		c0-0.445-0.363-0.808-0.809-0.808c-0.447,0-0.81,0.362-0.81,0.808v53.799h-8.654c-0.448,0-0.81,0.363-0.81,0.812
		c0,0.445,0.361,0.808,0.81,0.808h8.654v8.656c0,0.445,0.362,0.808,0.81,0.808c0.445,0,0.809-0.362,0.809-0.808v-8.656h53.8
		c0.445,0,0.808-0.362,0.808-0.808C82.845,72.125,82.482,71.762,82.037,71.762L82.037,71.762z M47.906,45.355L36.06,60.686
		l-0.01,0.016c-0.203,0.265-0.279,0.589-0.238,0.901c0.038,0.302,0.194,0.595,0.455,0.798l0.007,0.007l2.131,1.646
		c0.264,0.203,0.592,0.281,0.9,0.242c0.306-0.039,0.602-0.193,0.805-0.458l10.056-13.017h0.003c0.146-0.191,0.375-0.315,0.636-0.315
		L65.6,50.483l7.412-13.023c0.137-0.235,0.385-0.397,0.674-0.406c0.446-0.018,0.82,0.333,0.838,0.775l0.111,3.19l5.149-0.185V21.058
		l-17.403,9.35l2.271,4.632l2.986-1.464l0,0c0.229-0.114,0.51-0.114,0.748,0.022c0.387,0.217,0.524,0.71,0.306,1.095l-5.769,10.209
		c-0.133,0.264-0.404,0.441-0.719,0.441L47.906,45.355z"/>
</g>
<g id="Layer_12" display="none">
	<g display="inline">
		<path fill-rule="evenodd" clip-rule="evenodd" fill="#EE723B" d="M86.83,30.597H58.381v5.02c2.119,1.461,3.898,3.458,5.166,5.814
			c1.352,2.518,2.129,5.445,2.129,8.568c0,3.122-0.777,6.051-2.129,8.569c-1.268,2.357-3.047,4.355-5.166,5.814v5.023H86.83V30.597
			L86.83,30.597z M9.556,23.447h33.219h14.454h33.215c0.83,0,1.584,0.336,2.127,0.883c0.543,0.544,0.883,1.299,0.883,2.126v47.089
			c0,0.83-0.34,1.58-0.883,2.129c-0.018,0.018-0.037,0.033-0.055,0.047c-0.541,0.518-1.27,0.832-2.072,0.832H57.229H42.775H9.556
			c-0.825,0-1.579-0.338-2.123-0.879L7.43,75.668c-0.545-0.545-0.883-1.295-0.883-2.123V26.456c0-0.827,0.337-1.578,0.883-2.122
			l0.003-0.004H7.43C7.974,23.783,8.727,23.447,9.556,23.447L9.556,23.447z M90.443,25.165c0.355,0,0.68,0.146,0.912,0.379
			c0.23,0.232,0.381,0.558,0.381,0.912v47.089c0,0.354-0.15,0.676-0.381,0.912l-0.033,0.033c-0.23,0.213-0.541,0.346-0.879,0.346
			H58.092v-3.713h29.602c0.473,0,0.854-0.385,0.854-0.861V29.735c0-0.473-0.381-0.858-0.854-0.858H58.092v-3.712H90.443
			L90.443,25.165z M41.913,25.165H9.556c-0.355,0-0.676,0.146-0.91,0.379l-0.003-0.003c-0.229,0.235-0.378,0.558-0.378,0.915v47.089
			c0,0.354,0.149,0.678,0.378,0.912c0.233,0.234,0.558,0.379,0.914,0.379h32.356v-3.713H12.311c-0.477,0-0.859-0.385-0.859-0.861
			V29.735c0-0.473,0.382-0.858,0.859-0.858h29.602V25.165L41.913,25.165z M50.86,25.165v49.671h5.511V64.109V35.887V25.165H50.86
			L50.86,25.165z M49.139,74.836V25.165h-5.506v10.723v28.222v10.727H49.139L49.139,74.836z M78.484,46.754
			c0.898,0,1.713,0.365,2.301,0.957c0.59,0.589,0.955,1.403,0.955,2.303c0,0.896-0.365,1.71-0.955,2.302l0,0
			c-0.588,0.588-1.402,0.951-2.301,0.951s-1.713-0.363-2.305-0.951l-0.053-0.059c-0.557-0.582-0.902-1.375-0.902-2.244
			c0-0.899,0.369-1.714,0.955-2.303C76.771,47.12,77.586,46.754,78.484,46.754L78.484,46.754z M79.57,48.929
			c0.275,0.272,0.453,0.659,0.453,1.085c0,0.429-0.174,0.811-0.451,1.085v0.002L79.57,51.1c-0.277,0.279-0.664,0.451-1.086,0.451
			c-0.426,0-0.811-0.172-1.09-0.451l-0.035-0.035c-0.254-0.269-0.414-0.641-0.414-1.05c0-0.426,0.174-0.813,0.449-1.085
			c0.279-0.28,0.664-0.453,1.09-0.453C78.906,48.476,79.293,48.649,79.57,48.929L79.57,48.929z M21.519,46.754
			c-0.869,0-1.663,0.345-2.248,0.906l-0.054,0.051c-0.588,0.589-0.956,1.403-0.956,2.303c0,0.892,0.364,1.703,0.95,2.294
			l0.006,0.004v0.004h0.003c0.588,0.59,1.402,0.951,2.299,0.951c0.899,0,1.714-0.363,2.302-0.951s0.953-1.403,0.953-2.302
			s-0.365-1.714-0.953-2.303l-0.003,0.004C23.229,47.124,22.415,46.754,21.519,46.754L21.519,46.754z M22.604,48.921
			c-0.273-0.272-0.659-0.445-1.085-0.445c-0.408,0-0.781,0.158-1.051,0.412l-0.034,0.041c-0.281,0.272-0.449,0.659-0.449,1.085
			c0,0.429,0.168,0.811,0.442,1.085l0.007,0.006c0.273,0.273,0.659,0.445,1.085,0.445s0.808-0.172,1.088-0.451
			c0.278-0.278,0.45-0.66,0.45-1.085s-0.172-0.813-0.453-1.085l0.003-0.004L22.604,48.921L22.604,48.921z M19.211,52.309L19.22,51.1
			C18.885,51.434,18.883,51.971,19.211,52.309L19.211,52.309z M16.435,65.33h10.168c0.477,0,0.859-0.383,0.859-0.857
			c0-0.479-0.382-0.859-0.859-0.859H16.435c-0.474,0-0.862,0.381-0.862,0.859C15.572,64.947,15.961,65.33,16.435,65.33L16.435,65.33
			z M73.4,65.33c-0.477,0-0.861-0.383-0.861-0.857c0-0.479,0.385-0.859,0.861-0.859h10.168c0.473,0,0.857,0.381,0.857,0.859
			c0,0.475-0.385,0.857-0.857,0.857H73.4L73.4,65.33z M73.4,36.391c-0.477,0-0.861-0.389-0.861-0.862s0.385-0.862,0.861-0.862
			h10.168c0.473,0,0.857,0.389,0.857,0.862s-0.385,0.862-0.857,0.862H73.4L73.4,36.391z M16.435,36.391h10.168
			c0.477,0,0.859-0.389,0.859-0.862s-0.382-0.862-0.859-0.862H16.435c-0.474,0-0.862,0.389-0.862,0.862S15.961,36.391,16.435,36.391
			L16.435,36.391z M58.381,37.763c1.471,1.214,2.715,2.734,3.654,4.482c1.221,2.269,1.924,4.918,1.924,7.754
			c0,2.834-0.703,5.487-1.926,7.758c-0.938,1.744-2.182,3.27-3.652,4.479V37.763L58.381,37.763z M41.622,37.763
			c-1.471,1.214-2.715,2.734-3.654,4.482c-1.22,2.269-1.923,4.922-1.923,7.754c0,2.834,0.704,5.487,1.923,7.758
			c0.939,1.744,2.184,3.27,3.654,4.479V37.763L41.622,37.763z M36.457,41.431c1.267-2.359,3.042-4.357,5.165-5.818v-5.016H13.169
			v38.809h28.453v-5.023c-2.123-1.457-3.898-3.457-5.165-5.814c-1.356-2.518-2.133-5.447-2.133-8.569
			C34.324,46.876,35.101,43.947,36.457,41.431z"/>
	</g>
</g>
</svg>
