<?xml version="1.0" encoding="utf-8"?>
<!-- Generator: Adobe Illustrator 16.0.0, SVG Export Plug-In . SVG Version: 6.00 Build 0)  -->
<!DOCTYPE svg PUBLIC "-//W3C//DTD SVG 1.1//EN" "http://www.w3.org/Graphics/SVG/1.1/DTD/svg11.dtd">
<svg version="1.1" id="Layer_1" xmlns="http://www.w3.org/2000/svg" xmlns:xlink="http://www.w3.org/1999/xlink" x="0px" y="0px"
	 width="65px" height="20px" viewBox="0 0 65 20" enable-background="new 0 0 65 20" xml:space="preserve">
<g>
	<path fill="#FFFFFF" d="M62.344,5.454H9.619c-0.318,0-0.612-0.229-0.639-0.546c-0.03-0.355,0.249-0.652,0.597-0.652h53.056
		C63.232,4.786,62.867,5.454,62.344,5.454z"/>
	<path fill="#FFFFFF" d="M62.344,8.837H10.877c-0.318,0-0.612-0.229-0.639-0.547c-0.03-0.354,0.249-0.651,0.597-0.651h51.797
		C63.232,8.169,62.867,8.837,62.344,8.837z"/>
	<path fill="#FFFFFF" d="M62.344,12.199H11.065c-0.319,0-0.612-0.23-0.639-0.547C10.395,11.297,10.674,11,11.022,11h51.61
		C63.232,11.531,62.867,12.199,62.344,12.199z"/>
	<path fill="#FFFFFF" d="M62.344,15.604H9.619c-0.318,0-0.612-0.229-0.639-0.545c-0.03-0.355,0.249-0.652,0.597-0.652h53.056l0,0
		C63.232,14.936,62.867,15.604,62.344,15.604z"/>
	<path fill="#FFFFFF" d="M62.344,18.965H2.698c-0.318,0-0.612-0.229-0.639-0.545c-0.03-0.355,0.249-0.652,0.597-0.652
		c4.283,0,7.767-3.484,7.767-7.767c0-4.267-3.456-7.739-7.715-7.767C2.387,2.231,2.089,2.01,2.06,1.691
		C2.027,1.333,2.307,1.035,2.656,1.035c4.943,0,8.965,4.022,8.965,8.966c0,3.302-1.795,6.193-4.46,7.75
		c-0.009,0.004-0.005,0.018,0.005,0.018h55.467C63.232,18.297,62.867,18.965,62.344,18.965z"/>
</g>
<g>
</g>
<g>
</g>
<g>
</g>
<g>
</g>
<g>
</g>
<g>
</g>
</svg>
