<?xml version="1.0" encoding="utf-8"?>
<!-- Generator: Adobe Illustrator 16.0.0, SVG Export Plug-In . SVG Version: 6.00 Build 0)  -->
<!DOCTYPE svg PUBLIC "-//W3C//DTD SVG 1.1//EN" "http://www.w3.org/Graphics/SVG/1.1/DTD/svg11.dtd">
<svg version="1.1" xmlns="http://www.w3.org/2000/svg" xmlns:xlink="http://www.w3.org/1999/xlink" x="0px" y="0px" width="60px"
	 height="20px" viewBox="0 0 60 20" enable-background="new 0 0 60 20" xml:space="preserve">
<g id="Layer_1">
	<g>
		<path fill="#FFFFFF" d="M49.554,18.965c-0.349,0-0.628-0.299-0.597-0.654c0.029-0.32,0.328-0.541,0.648-0.543
			c4.26-0.027,7.716-3.502,7.716-7.767c0-4.267-3.456-7.739-7.716-7.768c-0.32-0.002-0.619-0.224-0.648-0.543
			c-0.031-0.356,0.248-0.655,0.597-0.655c4.944,0,8.966,4.021,8.966,8.966C58.52,14.943,54.498,18.965,49.554,18.965z"/>
		<path fill="#FFFFFF" d="M38.092,18.965c-0.35,0-0.629-0.299-0.596-0.654c0.028-0.32,0.326-0.541,0.647-0.543
			c4.259-0.027,7.716-3.502,7.716-7.767c0-4.267-3.456-7.739-7.716-7.768c-0.321-0.002-0.619-0.224-0.647-0.543
			c-0.033-0.356,0.246-0.655,0.596-0.655c4.943,0,8.966,4.021,8.966,8.966C47.058,14.943,43.035,18.965,38.092,18.965z"/>
		<path fill="#FFFFFF" d="M25.004,18.965c-0.35,0-0.629-0.299-0.596-0.654c0.029-0.32,0.327-0.541,0.648-0.543
			c4.26-0.027,7.715-3.502,7.715-7.767c0-4.267-3.456-7.739-7.715-7.768c-0.321-0.002-0.619-0.224-0.648-0.543
			c-0.033-0.356,0.247-0.655,0.596-0.655c4.943,0,8.965,4.021,8.965,8.966C33.97,14.943,29.948,18.965,25.004,18.965z"/>
		<path fill="#FFFFFF" d="M13.542,18.965c-0.35,0-0.628-0.299-0.596-0.654c0.029-0.32,0.327-0.541,0.648-0.543
			c4.26-0.027,7.716-3.502,7.716-7.767c0-4.267-3.456-7.739-7.715-7.768c-0.321-0.002-0.619-0.224-0.648-0.543
			c-0.032-0.356,0.247-0.655,0.596-0.655c4.944,0,8.966,4.021,8.966,8.966C22.508,14.943,18.486,18.965,13.542,18.965z"/>
		<path fill="#FFFFFF" d="M2.08,18.965c-0.35,0-0.629-0.299-0.597-0.654c0.029-0.32,0.328-0.541,0.648-0.543
			C6.391,17.74,9.848,14.266,9.848,10c0-4.267-3.456-7.739-7.716-7.768C1.811,2.231,1.513,2.009,1.483,1.69
			C1.451,1.333,1.73,1.035,2.08,1.035c4.944,0,8.965,4.021,8.965,8.966C11.045,14.943,7.024,18.965,2.08,18.965z"/>
	</g>
</g>
<g id="Layer_2">
	<g>
	</g>
	<g>
	</g>
	<g>
	</g>
	<g>
	</g>
	<g>
	</g>
	<g>
	</g>
</g>
</svg>
