<?xml version="1.0" encoding="utf-8"?>
<!-- Generator: Adobe Illustrator 16.0.0, SVG Export Plug-In . SVG Version: 6.00 Build 0)  -->
<!DOCTYPE svg PUBLIC "-//W3C//DTD SVG 1.1//EN" "http://www.w3.org/Graphics/SVG/1.1/DTD/svg11.dtd">
<svg version="1.1" id="Layer_1" xmlns="http://www.w3.org/2000/svg" xmlns:xlink="http://www.w3.org/1999/xlink" x="0px" y="0px"
	 width="94px" height="118px" viewBox="0 0 94 118" enable-background="new 0 0 94 118" xml:space="preserve">
<g>
	<path fill-rule="evenodd" clip-rule="evenodd" fill="#F6B170" d="M8.09,18.942h10.099V7.749l0,0c0-1.964,0.8-3.75,2.095-5.039
		c1.291-1.289,3.071-2.089,5.038-2.089V0.617l0,0v0.005l41.245,0.005l0.107-0.005c0.359,0,0.683,0.158,0.902,0.416l25.051,25.074
		c0.252,0.214,0.416,0.538,0.416,0.897l-0.01,0.107L93.01,91.93c0,1.969-0.803,3.754-2.094,5.045
		c-1.289,1.289-3.07,2.088-5.034,2.088H75.783l-0.005,11.193c-0.005,1.965-0.804,3.748-2.094,5.039
		c-1.294,1.289-3.075,2.088-5.033,2.088H8.09H8.085v-0.004c-1.967,0-3.747-0.799-5.034-2.09c-1.289-1.293-2.088-3.074-2.088-5.037
		H0.957l0,0V26.073V26.07c0-1.959,0.801-3.74,2.094-5.034c1.287-1.296,3.07-2.094,5.034-2.094v-0.005H8.09V18.942L8.09,18.942z
		 M12.908,96.945h50.947c0.656,0,1.188-0.531,1.188-1.188c0-0.658-0.531-1.191-1.188-1.191H12.908c-0.658,0-1.188,0.533-1.188,1.191
		C11.721,96.414,12.25,96.945,12.908,96.945L12.908,96.945z M63.855,84.457H12.908c-0.658,0-1.188,0.533-1.188,1.193
		c0,0.652,0.529,1.188,1.188,1.188h50.947c0.656,0,1.188-0.535,1.188-1.188C65.043,84.99,64.512,84.457,63.855,84.457L63.855,84.457
		z M63.855,74.348H12.908c-0.658,0-1.188,0.535-1.188,1.188c0,0.66,0.529,1.191,1.188,1.191h50.947c0.656,0,1.188-0.531,1.188-1.191
		C65.043,74.883,64.512,74.348,63.855,74.348L63.855,74.348z M27.499,31.968c-2.8,0-5.342,1.141-7.179,2.973l-0.01,0.008
		c-1.832,1.837-2.973,4.379-2.973,7.179s1.141,5.342,2.973,7.178l0.01,0.005c0.57,0.576,1.215,1.08,1.911,1.5
		c-2.237,0.794-4.242,2.081-5.888,3.725h0.005c-2.86,2.86-4.628,6.81-4.628,11.165c0,0.654,0.529,1.188,1.188,1.188h29.195
		c0.66,0,1.192-0.533,1.192-1.188c0-4.35-1.766-8.294-4.621-11.155l-0.005-0.005v-0.005h-0.006c-1.645-1.644-3.654-2.93-5.894-3.725
		c0.697-0.42,1.337-0.93,1.907-1.5l0.01-0.005c1.838-1.836,2.973-4.378,2.973-7.178s-1.135-5.342-2.973-7.179l-0.01-0.008
		C32.842,33.109,30.304,31.968,27.499,31.968L27.499,31.968z M33.004,36.622c-1.405-1.406-3.354-2.275-5.505-2.275
		c-2.149,0-4.099,0.869-5.505,2.275s-2.277,3.355-2.277,5.505s0.871,4.099,2.277,5.507c1.406,1.406,3.355,2.28,5.505,2.28h0.011
		c2.149-0.005,4.089-0.874,5.494-2.28c1.406-1.408,2.282-3.357,2.282-5.507S34.416,38.028,33.004,36.622L33.004,36.622z
		 M36.991,56.209c-2.425-2.42-5.776-3.921-9.481-3.921h-0.011c-3.701,0-7.052,1.505-9.474,3.931l-0.005-0.005l-0.003,0.005
		c-2.16,2.158-3.586,5.062-3.871,8.291h26.72c-0.286-3.229-1.71-6.132-3.875-8.291V56.209L36.991,56.209z M38.675,54.546
		l-0.011,1.673C39.128,55.756,39.131,55.009,38.675,54.546L38.675,54.546z M90.668,28.2H72.614c-1.958,0-3.739-0.803-5.033-2.094
		h-0.005v-0.005l-0.014-0.008c-1.286-1.294-2.08-3.072-2.08-5.025V2.996L25.321,2.991v0.005l0,0V2.991
		c-1.304,0-2.496,0.533-3.36,1.398c-0.86,0.859-1.393,2.056-1.393,3.36l0,0v11.193l27.668,0.005h1.094l0.107-0.005
		c0.365,0,0.684,0.163,0.902,0.416l12.118,12.128l12.937,12.946c0.254,0.219,0.412,0.542,0.412,0.902v0.107l-0.023,51.248h10.099
		c1.314,0,2.501-0.539,3.365-1.398c0.86-0.859,1.394-2.051,1.394-3.361L90.668,28.2L90.668,28.2z M67.861,4.674v16.394
		c0,1.309,0.532,2.501,1.393,3.362v0.003c0.859,0.855,2.051,1.393,3.36,1.393H88.99L67.861,4.674L67.861,4.674z M73.414,97.982
		l-0.005-0.107l0.005-0.107l0.023-51.246H55.383c-1.959,0-3.744-0.8-5.033-2.094l0,0h-0.005l-0.015-0.018
		c-1.279-1.291-2.079-3.067-2.079-5.021V21.312h-6.669H19.376h-0.028H8.09v0.005H8.085v-0.005c-1.31,0-2.496,0.532-3.354,1.396
		c-0.861,0.86-1.398,2.053-1.398,3.362v0.003v84.179l0,0H3.327c0,1.309,0.537,2.5,1.403,3.359c0.858,0.865,2.045,1.402,3.354,1.402
		v-0.004H8.09h60.562c1.309,0,2.501-0.537,3.359-1.398c0.866-0.859,1.398-2.051,1.398-3.355L73.414,97.982L73.414,97.982z
		 M50.63,22.999v16.39c0,1.314,0.527,2.501,1.388,3.36h0.004c0.86,0.866,2.047,1.393,3.361,1.393h16.371L61.229,33.608L50.63,22.999
		z"/>
</g>
<g>
</g>
<g>
</g>
<g>
</g>
<g>
</g>
<g>
</g>
<g>
</g>
</svg>
