<?xml version="1.0" encoding="utf-8"?>
<!-- Generator: Adobe Illustrator 16.0.0, SVG Export Plug-In . SVG Version: 6.00 Build 0)  -->
<!DOCTYPE svg PUBLIC "-//W3C//DTD SVG 1.1//EN" "http://www.w3.org/Graphics/SVG/1.1/DTD/svg11.dtd">
<svg version="1.1" id="Layer_1" xmlns="http://www.w3.org/2000/svg" xmlns:xlink="http://www.w3.org/1999/xlink" x="0px" y="0px"
	 width="190px" height="125px" viewBox="0 0 190 125" enable-background="new 0 0 190 125" xml:space="preserve">
<g>
	<path fill-rule="evenodd" clip-rule="evenodd" fill="#FAB570" d="M164.854,3.675l19.643,19.662V9.907
		c0-1.715-0.698-3.278-1.834-4.406c-1.126-1.127-2.689-1.826-4.406-1.826H164.854L164.854,3.675z M172.055,52.273
		c0.858,0,1.557,0.698,1.557,1.562c0,0.857-0.698,1.563-1.557,1.563h-63.063c-0.865,0-1.564-0.705-1.564-1.563
		c0-0.863,0.699-1.562,1.564-1.562H172.055L172.055,52.273z M172.055,34.97c0.858,0,1.557,0.688,1.557,1.545
		c0,0.852-0.698,1.544-1.557,1.544h-63.063c-0.865,0-1.564-0.692-1.564-1.544c0-0.857,0.699-1.545,1.564-1.545H172.055
		L172.055,34.97z M142.055,86.927c0.858,0,1.557,0.699,1.557,1.551c0,0.862-0.698,1.563-1.557,1.563h-33.069
		c-0.858,0-1.558-0.7-1.558-1.563c0-0.852,0.699-1.551,1.558-1.551H142.055L142.055,86.927z M172.055,69.599
		c0.858,0,1.557,0.699,1.557,1.557c0,0.865-0.698,1.564-1.557,1.564h-63.069c-0.858,0-1.558-0.699-1.558-1.564
		c0-0.857,0.699-1.557,1.558-1.557H172.055L172.055,69.599z M46.309,46.922l-6.27-3.782l-9.458,7.116
		c-0.448,0.331-1.01,0.388-1.501,0.201l0,0l-9.604-3.775v6.835h26.832V46.922L46.309,46.922z M19.477,43.337v-8.361h26.832v8.313
		l-5.559-3.354c-0.588-0.354-1.33-0.274-1.827,0.159l-9.511,7.154L19.477,43.337L19.477,43.337z M17.919,31.862h29.946
		c0.859,0,1.558,0.691,1.558,1.557v21.66c0,0.859-0.698,1.558-1.558,1.558H17.919c-0.858,0-1.557-0.698-1.557-1.558v-21.66
		C16.362,32.554,17.061,31.862,17.919,31.862L17.919,31.862z M57.721,55.397c-0.862,0-1.563-0.705-1.563-1.563
		c0-0.863,0.7-1.562,1.563-1.562h23.268c0.857,0,1.558,0.698,1.558,1.562c0,0.857-0.7,1.563-1.558,1.563H57.721L57.721,55.397z
		 M57.721,38.059c-0.862,0-1.563-0.692-1.563-1.544c0-0.857,0.7-1.545,1.563-1.545h23.268c0.857,0,1.558,0.688,1.558,1.545
		c0,0.852-0.7,1.544-1.558,1.544H57.721L57.721,38.059z M17.919,90.04c-0.858,0-1.557-0.7-1.557-1.563
		c0-0.852,0.698-1.551,1.557-1.551h63.069c0.857,0,1.558,0.699,1.558,1.551c0,0.862-0.7,1.563-1.558,1.563H17.919L17.919,90.04z
		 M142.055,104.987c0.858,0,1.557,0.699,1.557,1.551c0,0.863-0.698,1.563-1.557,1.563h-33.069c-0.858,0-1.558-0.7-1.558-1.563
		c0-0.852,0.699-1.551,1.558-1.551H142.055L142.055,104.987z M17.919,108.102c-0.858,0-1.557-0.7-1.557-1.563
		c0-0.852,0.698-1.551,1.557-1.551h63.069c0.857,0,1.558,0.699,1.558,1.551c0,0.863-0.7,1.563-1.558,1.563H17.919L17.919,108.102z
		 M17.919,72.72c-0.858,0-1.557-0.699-1.557-1.564c0-0.857,0.698-1.557,1.557-1.557h63.069c0.857,0,1.558,0.699,1.558,1.557
		c0,0.865-0.7,1.564-1.558,1.564H17.919L17.919,72.72z M11.711,121.317c-1.716,0-3.273-0.699-4.402-1.827
		c-1.133-1.126-1.831-2.69-1.831-4.407V9.907c0-1.722,0.698-3.278,1.821-4.406l0.01-0.006c1.123-1.128,2.68-1.82,4.402-1.82h81.713
		v117.643H11.711L11.711,121.317z M94.987,124.444H11.711c-2.574,0-4.916-1.056-6.607-2.746c-1.693-1.699-2.746-4.035-2.746-6.615
		V9.907c0-2.561,1.049-4.892,2.733-6.589l0.013-0.011l0,0L5.11,3.302c1.697-1.697,4.032-2.746,6.601-2.746h83.276h83.269
		c2.582,0,4.924,1.049,6.615,2.746c1.691,1.69,2.738,4.025,2.738,6.605v16.916c0.044,0.204,0.044,0.412,0,0.608v87.651
		c0,2.576-1.047,4.916-2.738,6.602l-0.008,0.014c-1.69,1.69-4.031,2.746-6.607,2.746H94.987L94.987,124.444z M184.496,28.688v86.396
		c0,1.717-0.698,3.281-1.826,4.407l-0.008,0.007c-1.126,1.128-2.683,1.82-4.406,1.82H96.544V3.675h63.001v15.659
		c0,2.581,1.049,4.917,2.746,6.608c1.686,1.697,4.025,2.745,6.607,2.745H184.496L184.496,28.688z M182.338,25.574h-13.439
		c-1.724,0-3.28-0.705-4.406-1.833c-1.129-1.134-1.834-2.69-1.834-4.407V5.881L182.338,25.574z"/>
	<g>
		<path fill="#FAB570" d="M174.986,89.398c0,4.854-7.242,6.812-7.086,9.825l0.039,0.822h-3.797V98.48c0-2.858,6.85-5.206,6.85-8.573
			c0-2.545-1.683-4.424-4.814-4.424s-4.972,1.253-6.852,3.641v-4.267c1.41-1.723,4.229-3.093,7.242-3.093
			C171.267,81.765,174.986,84.975,174.986,89.398z M168.957,106.545c0,1.487-1.252,2.74-2.74,2.74c-1.527,0-2.74-1.253-2.74-2.74
			c0-1.526,1.213-2.741,2.74-2.741C167.705,103.804,168.957,105.019,168.957,106.545z"/>
	</g>
</g>
<g>
</g>
<g>
</g>
<g>
</g>
<g>
</g>
<g>
</g>
<g>
</g>
</svg>
