<?xml version="1.0" encoding="utf-8"?>
<!-- Generator: Adobe Illustrator 16.0.0, SVG Export Plug-In . SVG Version: 6.00 Build 0)  -->
<!DOCTYPE svg PUBLIC "-//W3C//DTD SVG 1.1//EN" "http://www.w3.org/Graphics/SVG/1.1/DTD/svg11.dtd">
<svg version="1.1" id="Layer_1" xmlns="http://www.w3.org/2000/svg" xmlns:xlink="http://www.w3.org/1999/xlink" x="0px" y="0px"
	 width="84px" height="104px" viewBox="0 0 84 104" enable-background="new 0 0 84 104" xml:space="preserve">
<g>
	<path fill="#6F7070" d="M42.705,103.052H18.877c-5.461,0-10.273-3.53-11.973-8.783c-0.376-1.16-0.558-2.435-0.558-3.895V36.371
		c0-6.38,1.553-12.748,4.49-18.413l2.869-5.532c-1.249-0.488-2.135-1.703-2.135-3.122V4.298c0-1.847,1.503-3.35,3.351-3.35h31.741
		c1.848,0,3.352,1.503,3.352,3.35v5.007c0,1.419-0.889,2.634-2.137,3.122l2.869,5.531c2.938,5.665,4.49,12.032,4.49,18.413v54.151
		c0,5.422-3.361,10.099-8.566,11.913C45.496,102.844,44.162,103.052,42.705,103.052z M14.921,3.695
		c-0.333,0-0.603,0.271-0.603,0.603v5.007c0,0.333,0.271,0.603,0.603,0.603h0.925c0.48,0,0.925,0.25,1.174,0.66
		c0.25,0.41,0.267,0.921,0.046,1.347l-3.79,7.309C10.54,24.5,9.094,30.429,9.094,36.371v54.003c0,1.168,0.139,2.166,0.425,3.049
		c1.332,4.115,5.093,6.881,9.359,6.881h23.827c1.149,0,2.178-0.156,3.061-0.464c4.084-1.423,6.723-5.081,6.723-9.318V36.371
		c0-5.942-1.445-11.871-4.182-17.148l-3.789-7.309c-0.221-0.426-0.205-0.937,0.045-1.347c0.248-0.409,0.693-0.66,1.174-0.66h0.926
		c0.332,0,0.604-0.271,0.604-0.603V4.298c0-0.332-0.271-0.603-0.604-0.603H14.921z"/>
	<path fill="#6F7070" d="M36.995,12.655H15.846c-0.758,0-1.374-0.615-1.374-1.374s0.615-1.374,1.374-1.374h21.149
		c0.759,0,1.374,0.615,1.374,1.374S37.753,12.655,36.995,12.655z"/>
	<path fill="#6F7070" d="M53.861,83.681H26.42c-0.759,0-1.374-0.614-1.374-1.373V41.39c0-0.759,0.615-1.374,1.374-1.374h27.441
		c0.76,0,1.375,0.615,1.375,1.374v40.918C55.236,83.066,54.621,83.681,53.861,83.681z M27.794,80.934h24.694v-38.17H27.794V80.934z"
		/>
	<path fill="#6F7070" d="M78.928,70.114H53.861c-0.758,0-1.373-0.615-1.373-1.373v-7.655c0-0.758,0.615-1.373,1.373-1.373h25.066
		c2.297,0,4.166,1.869,4.166,4.167v2.068C83.094,68.245,81.225,70.114,78.928,70.114z M55.236,67.367h23.691
		c0.783,0,1.42-0.637,1.42-1.419V63.88c0-0.783-0.637-1.42-1.42-1.42H55.236V67.367z"/>
	<path fill="#6F7070" d="M81.721,103.052H2.279c-0.759,0-1.374-0.615-1.374-1.374s0.615-1.374,1.374-1.374h79.441
		c0.758,0,1.373,0.615,1.373,1.374S82.479,103.052,81.721,103.052z"/>
	<path fill="#6F7070" d="M71.564,103.052H44.576c-0.76,0-1.373-0.615-1.373-1.374c0-0.822,0.492-1.398,1.162-1.503
		c0.531-0.082,0.99-0.191,1.4-0.335c4.084-1.423,6.723-5.081,6.723-9.318v-21.78c0-0.759,0.615-1.374,1.373-1.374h23.797
		c0.408,0,0.795,0.181,1.057,0.495c0.26,0.313,0.369,0.727,0.295,1.129l-6.094,32.937C72.795,102.579,72.227,103.052,71.564,103.052
		z M50.549,100.304h19.873l5.586-30.189H55.236v20.407C55.236,94.437,53.482,97.964,50.549,100.304z"/>
</g>
<g>
</g>
<g>
</g>
<g>
</g>
<g>
</g>
<g>
</g>
<g>
</g>
</svg>
