<?xml version="1.0" encoding="utf-8"?>
<!-- Generator: Adobe Illustrator 16.0.0, SVG Export Plug-In . SVG Version: 6.00 Build 0)  -->
<!DOCTYPE svg PUBLIC "-//W3C//DTD SVG 1.1//EN" "http://www.w3.org/Graphics/SVG/1.1/DTD/svg11.dtd">
<svg version="1.1" xmlns="http://www.w3.org/2000/svg" xmlns:xlink="http://www.w3.org/1999/xlink" x="0px" y="0px" width="340px"
	 height="140px" viewBox="0 0 340 140" enable-background="new 0 0 340 140" xml:space="preserve">
<g id="Layer_1" display="none">
	<g display="inline">
		<g>
			<path fill="#F2723B" d="M97.563,134.408H6.592c-1.733-1.523-0.677-3.453,0.83-3.453h89.06l32.044-65.999
				c0.417-0.86,1.451-1.218,2.307-0.8c0.859,0.417,1.216,1.449,0.8,2.307l-32.517,66.972
				C98.827,134.031,98.223,134.408,97.563,134.408z"/>
			<path fill="#F2723B" d="M110.644,134.408c-0.254,0-0.51-0.055-0.754-0.174c-0.857-0.416-1.215-1.449-0.798-2.307l32.517-66.972
				c0.417-0.857,1.449-1.215,2.307-0.799c0.858,0.417,1.216,1.449,0.799,2.308l-32.517,66.971
				C111.899,134.051,111.283,134.408,110.644,134.408z"/>
			<path fill="#F2723B" d="M123.725,134.408c-0.254,0-0.51-0.055-0.753-0.174c-0.858-0.416-1.216-1.449-0.8-2.307l32.517-66.971
				c0.417-0.858,1.449-1.216,2.306-0.8c0.859,0.417,1.216,1.449,0.8,2.307l-32.517,66.972
				C124.98,134.051,124.365,134.408,123.725,134.408z"/>
			<path fill="#F2723B" d="M136.807,134.408c-0.253,0-0.51-0.055-0.752-0.174c-0.859-0.416-1.216-1.449-0.8-2.307l32.517-66.971
				c0.417-0.858,1.447-1.216,2.307-0.8c0.858,0.417,1.216,1.449,0.799,2.307l-32.515,66.972
				C138.063,134.051,137.447,134.408,136.807,134.408z"/>
			<path fill="#F2723B" d="M149.888,134.408c-0.253,0-0.509-0.055-0.752-0.174c-0.858-0.416-1.215-1.449-0.799-2.307l32.517-66.972
				c0.415-0.857,1.451-1.215,2.307-0.799c0.859,0.417,1.217,1.449,0.8,2.308l-32.517,66.971
				C151.145,134.051,150.529,134.408,149.888,134.408z"/>
			<path fill="#F2723B" d="M162.971,134.408c-0.595,0-1.148-0.307-1.464-0.811s-0.349-1.135-0.089-1.67l31.311-64.491H4.585
				c-0.002,0-0.004-0.001-0.005-0.003c-1.729-1.522-0.674-3.451,0.832-3.451h190.076c0.595,0,1.147,0.307,1.463,0.811
				s0.35,1.136,0.09,1.671l-31.312,64.491h168.292c1.508,0,2.561,1.93,0.831,3.453H162.971z"/>
			<path fill="#F2723B" d="M125.292,77.004H6.592c-1.733-1.523-0.677-3.453,0.83-3.453H125.2c0.86,0,1.657,0.588,1.795,1.436
				C127.171,76.068,126.341,77.004,125.292,77.004z"/>
			<path fill="#F2723B" d="M120.628,86.57H6.592c-1.733-1.521-0.677-3.453,0.83-3.453h113.113c0.861,0,1.658,0.588,1.796,1.438
				C122.507,85.637,121.677,86.57,120.628,86.57z"/>
			<path fill="#F2723B" d="M116.098,96.139H6.592c-1.733-1.523-0.677-3.453,0.83-3.453h108.583c0.86,0,1.657,0.588,1.795,1.436
				C117.977,95.203,117.146,96.139,116.098,96.139z"/>
			<path fill="#F2723B" d="M109.168,105.705H6.592c-1.733-1.521-0.677-3.453,0.83-3.453h101.653c0.86,0,1.658,0.588,1.796,1.438
				C111.047,104.771,110.216,105.705,109.168,105.705z"/>
			<path fill="#F2723B" d="M106.502,115.273H6.592c-1.733-1.523-0.677-3.453,0.83-3.453h98.988c0.86,0,1.658,0.588,1.796,1.438
				C108.382,114.34,107.551,115.273,106.502,115.273z"/>
			<path fill="#F2723B" d="M101.905,124.842H6.592c-1.733-1.523-0.677-3.453,0.83-3.453h94.391c0.86,0,1.657,0.586,1.795,1.436
				C103.784,123.906,102.954,124.842,101.905,124.842z"/>
			<path fill="#F2723B" d="M122.427,30.389c-0.953,0-1.727-0.773-1.727-1.727V19c0-0.953,0.773-1.727,1.727-1.727
				c0.954,0,1.727,0.773,1.727,1.727v9.662C124.154,29.616,123.381,30.389,122.427,30.389z"/>
			<path fill="#F2723B" d="M133.366,32.319c-0.196,0-0.395-0.034-0.59-0.105c-0.896-0.326-1.358-1.317-1.032-2.213l3.304-9.079
				c0.326-0.897,1.319-1.358,2.213-1.033c0.896,0.327,1.359,1.318,1.033,2.214l-3.304,9.079
				C134.734,31.882,134.071,32.319,133.366,32.319z"/>
			<path fill="#F2723B" d="M142.984,37.872c-0.391,0-0.784-0.132-1.108-0.404c-0.73-0.612-0.826-1.702-0.212-2.433l6.21-7.4
				c0.612-0.729,1.702-0.826,2.432-0.214c0.73,0.613,0.826,1.703,0.213,2.433l-6.211,7.401
				C143.967,37.662,143.479,37.872,142.984,37.872z"/>
			<path fill="#F2723B" d="M150.127,46.38c-0.597,0-1.177-0.31-1.498-0.863c-0.477-0.826-0.194-1.882,0.633-2.359l8.367-4.83
				c0.821-0.478,1.88-0.195,2.359,0.632c0.477,0.827,0.193,1.883-0.633,2.359l-8.367,4.831
				C150.718,46.306,150.421,46.38,150.127,46.38z"/>
			<path fill="#F2723B" d="M90.932,56.819c-0.1,0-0.2-0.009-0.302-0.026l-9.516-1.678c-0.939-0.166-1.565-1.062-1.4-2.001
				c0.166-0.938,1.053-1.564,2.001-1.4l9.515,1.678c0.939,0.167,1.566,1.062,1.4,2.001C92.483,56.23,91.754,56.819,90.932,56.819z"
				/>
			<path fill="#F2723B" d="M94.727,46.38c-0.292,0-0.589-0.074-0.861-0.23l-8.368-4.831c-0.825-0.477-1.109-1.532-0.633-2.359
				c0.477-0.826,1.53-1.11,2.36-0.632l8.367,4.83c0.826,0.478,1.109,1.533,0.632,2.359C95.904,46.071,95.324,46.38,94.727,46.38z"/>
			<path fill="#F2723B" d="M101.869,37.872c-0.492,0-0.981-0.21-1.323-0.617l-6.211-7.401c-0.613-0.729-0.518-1.819,0.213-2.433
				c0.729-0.612,1.821-0.518,2.433,0.214l6.211,7.4c0.613,0.73,0.518,1.82-0.213,2.433C102.655,37.74,102.262,37.872,101.869,37.872
				z"/>
			<path fill="#F2723B" d="M111.488,32.319c-0.705,0-1.368-0.437-1.623-1.138l-3.304-9.079c-0.326-0.896,0.136-1.887,1.033-2.214
				c0.895-0.325,1.887,0.136,2.213,1.033L113.11,30c0.326,0.896-0.136,1.887-1.032,2.213
				C111.884,32.285,111.685,32.319,111.488,32.319z"/>
			<path fill="#F2723B" d="M146.694,67.437H98.162c-0.818,0-1.525-0.574-1.69-1.376c-0.37-1.778-0.558-3.601-0.558-5.415
				c0-14.619,11.895-26.514,26.514-26.514c14.62,0,26.515,11.895,26.515,26.514c0,1.811-0.187,3.631-0.556,5.415
				C148.219,66.862,147.512,67.437,146.694,67.437z M99.609,63.983h45.636c0.162-1.107,0.243-2.226,0.243-3.337
				c0-12.716-10.345-23.061-23.061-23.061c-12.715,0-23.06,10.345-23.06,23.061C99.367,61.76,99.448,62.877,99.609,63.983z"/>
			<path fill="#F2723B" d="M161.677,67.437h-7.751c-0.462,0-0.906-0.186-1.231-0.516c-0.324-0.33-0.502-0.775-0.496-1.238
				c0.103-6.545,3.946-13.255,4.11-13.537c0.308-0.533,0.878-0.861,1.494-0.861c0.616,0,1.186,0.328,1.494,0.861
				c0.164,0.282,4.005,6.992,4.108,13.537c0.006,0.463-0.172,0.908-0.496,1.238C162.583,67.251,162.139,67.437,161.677,67.437z
				 M155.782,63.983h4.039c-0.327-2.577-1.217-5.123-2.019-7.015C156.999,58.86,156.109,61.406,155.782,63.983z"/>
			<path fill="#F2723B" d="M171.191,67.437h-7.75c-0.462,0-0.906-0.186-1.231-0.516c-0.324-0.33-0.502-0.775-0.496-1.237
				c0.102-6.545,3.945-13.256,4.108-13.538c0.617-1.067,2.371-1.067,2.988,0c0.163,0.282,4.006,6.993,4.108,13.538
				c0.007,0.462-0.172,0.907-0.496,1.237C172.097,67.251,171.653,67.437,171.191,67.437z M165.296,63.983h4.04
				c-0.327-2.584-1.216-5.13-2.019-7.019C166.515,58.856,165.625,61.404,165.296,63.983z"/>
			<path fill="#F2723B" d="M180.707,67.437h-7.752c-0.462,0-0.906-0.186-1.23-0.516s-0.503-0.775-0.496-1.238
				c0.103-6.545,3.944-13.255,4.107-13.537c0.617-1.065,2.371-1.067,2.988,0c0.164,0.282,4.007,6.992,4.109,13.537
				c0.007,0.463-0.172,0.908-0.496,1.238C181.612,67.251,181.169,67.437,180.707,67.437z M174.813,63.983h4.037
				c-0.326-2.577-1.217-5.123-2.02-7.015C176.029,58.86,175.139,61.406,174.813,63.983z"/>
			<path fill="#F2723B" d="M190.221,67.437h-7.75c-0.462,0-0.905-0.186-1.23-0.516c-0.324-0.33-0.503-0.775-0.496-1.237
				c0.102-6.545,3.944-13.256,4.107-13.538c0.617-1.067,2.371-1.067,2.988,0c0.164,0.282,4.007,6.993,4.108,13.538
				c0.007,0.462-0.173,0.907-0.496,1.237C191.127,67.251,190.684,67.437,190.221,67.437z M184.326,63.983h4.04
				c-0.327-2.584-1.216-5.13-2.019-7.019C185.545,58.856,184.654,61.404,184.326,63.983z"/>
			<path fill="#F2723B" d="M334.021,124.842H167.714c-0.903,0-1.726-0.65-1.815-1.549c-0.104-1.033,0.704-1.904,1.718-1.904h167.236
				C336.582,122.91,335.529,124.842,334.021,124.842z"/>
			<path fill="#F2723B" d="M334.021,115.273H172.645c-0.902,0-1.726-0.65-1.815-1.549c-0.104-1.033,0.704-1.904,1.718-1.904h162.306
				C336.582,113.344,335.529,115.273,334.021,115.273z"/>
			<path fill="#F2723B" d="M334.021,105.705H177.454c-0.903,0-1.726-0.648-1.815-1.547c-0.104-1.035,0.704-1.906,1.718-1.906
				h157.496C336.582,103.775,335.529,105.705,334.021,105.705z"/>
			<path fill="#F2723B" d="M334.021,96.139H181.65c-0.904,0-1.727-0.65-1.816-1.549c-0.104-1.033,0.705-1.904,1.718-1.904h153.301
				C336.582,94.209,335.529,96.139,334.021,96.139z"/>
			<path fill="#F2723B" d="M334.021,86.57H186.295c-0.902,0-1.725-0.648-1.814-1.547c-0.104-1.035,0.704-1.906,1.717-1.906h148.655
				C336.582,84.641,335.529,86.57,334.021,86.57z"/>
			<path fill="#F2723B" d="M334.588,77.004H190.941c-0.903,0-1.727-0.65-1.816-1.549c-0.104-1.033,0.705-1.904,1.719-1.904h144.575
				C337.149,75.074,336.096,77.004,334.588,77.004z"/>
		</g>
		<g>
			<path fill-rule="evenodd" clip-rule="evenodd" fill="#F2723B" d="M232.049,18.096h24.998h1.514v-2.575h-1.514h-24.998V18.096
				L232.049,18.096z M286.223,18.096h1.904h24.998v-2.575h-24.998h-1.904V18.096z"/>
			<path fill-rule="evenodd" clip-rule="evenodd" fill="#F2723B" d="M216.815,12.938h12.649v-2.584h-12.649V12.938L216.815,12.938z
				 M237.215,12.938h12.649v-2.584h-12.649V12.938z"/>
			<polygon fill-rule="evenodd" clip-rule="evenodd" fill="#F2723B" points="234.631,10.354 234.631,7.771 232.049,7.771 
				232.049,10.354 232.049,12.938 234.631,12.938 			"/>
			<polygon fill-rule="evenodd" clip-rule="evenodd" fill="#F2723B" points="313.125,12.938 310.542,12.938 310.542,10.354 
				310.542,7.771 313.125,7.771 313.125,10.354 			"/>
			<path fill-rule="evenodd" clip-rule="evenodd" fill="#F2723B" d="M328.358,12.938h-12.649v-2.584h12.649V12.938L328.358,12.938z
				 M307.959,12.938h-12.65v-2.584h12.65V12.938z"/>
			<path fill-rule="evenodd" clip-rule="evenodd" fill="#F2723B" d="M272.259,22.872l-5.354-2.677v6.479
				c0.799,0.447,1.66,0.8,2.566,1.042c0.93,0.249,1.907,0.382,2.916,0.382c1.248,0,2.445-0.201,3.563-0.574
				c1.007-0.336,1.951-0.811,2.81-1.401L272.259,22.872z"/>
			<path fill-rule="evenodd" clip-rule="evenodd" fill="#F2723B" d="M278.286,19.987l-5.257,2.628l6.252,3.126
				c1.328-1.031,2.42-2.354,3.179-3.871c0.689-1.38,1.104-2.922,1.171-4.556L278.286,19.987z"/>
			<path fill-rule="evenodd" clip-rule="evenodd" fill="#F2723B" d="M272.516,10.817l5.355,2.677V7.014
				c-0.801-0.446-1.66-0.8-2.566-1.042c-0.93-0.248-1.908-0.381-2.918-0.381c-1.246,0-2.443,0.201-3.561,0.573
				c-1.008,0.336-1.951,0.811-2.811,1.401L272.516,10.817z"/>
			<path fill-rule="evenodd" clip-rule="evenodd" fill="#F2723B" d="M266.488,13.702l5.257-2.628l-6.251-3.126
				c-1.329,1.031-2.421,2.354-3.179,3.871c-0.69,1.379-1.104,2.921-1.171,4.555L266.488,13.702z"/>
			<path fill-rule="evenodd" clip-rule="evenodd" fill="#F2723B" d="M266.33,19.729v-5.306l-5.194,2.597
				c0.03,1.981,0.572,3.838,1.498,5.442c0.903,1.565,2.175,2.894,3.696,3.867V19.729z"/>
			<path fill-rule="evenodd" clip-rule="evenodd" fill="#F2723B" d="M278.446,13.958v5.306l5.192-2.597
				c-0.03-1.981-0.572-3.837-1.498-5.441c-0.904-1.565-2.174-2.895-3.695-3.867L278.446,13.958L278.446,13.958z"/>
			<polygon fill-rule="evenodd" clip-rule="evenodd" fill="#F2723B" points="253.395,20.679 250.812,20.679 250.812,23.263 
				250.812,25.846 250.812,28.429 250.812,31.012 248.229,31.012 248.229,33.596 250.812,33.596 253.395,33.596 255.979,33.596 
				255.979,31.012 253.395,31.012 253.395,28.429 253.395,25.846 253.395,23.263 255.979,23.263 255.979,20.679 			"/>
			<polygon fill-rule="evenodd" clip-rule="evenodd" fill="#F2723B" points="291.389,20.679 293.972,20.679 293.972,23.263 
				293.972,25.846 293.972,28.429 293.972,31.012 296.555,31.012 296.555,33.596 293.972,33.596 291.389,33.596 288.805,33.596 
				288.805,31.012 291.389,31.012 291.389,28.429 291.389,25.846 291.389,23.263 288.805,23.263 288.805,20.679 			"/>
		</g>
	</g>
</g>
<g id="Layer_2">
	<g>
		<g>
			<g id="XMLID_14_">
				<path id="XMLID_24_" fill="#F2723B" d="M59.053,56.93h48.432c0.886,0,1.604-0.718,1.604-1.604V21.184
					c0-0.888-0.718-1.604-1.604-1.604H94.493v-5.296c0-0.887-0.718-1.604-1.604-1.604H79.627c-0.885,0-1.603,0.718-1.603,1.604
					v5.296H72.2v-0.616c0-0.887-0.718-1.604-1.604-1.604h-4.492c-0.886,0-1.604,0.718-1.604,1.604v0.616h-5.447
					c-0.886,0-1.604,0.717-1.604,1.604v34.143C57.449,56.212,58.167,56.93,59.053,56.93z M81.232,15.888h10.052v3.691H81.232V15.888
					z M60.658,22.789h18.97h13.261h12.992v30.934H60.658V22.789z"/>
				<path id="XMLID_21_" fill="#F2723B" d="M90.396,26.013c-6.822,0-12.371,5.551-12.371,12.372s5.549,12.371,12.371,12.371
					c6.821,0,12.371-5.55,12.371-12.371S97.217,26.013,90.396,26.013z M90.396,47.548c-5.052,0-9.163-4.11-9.163-9.163
					s4.111-9.163,9.163-9.163s9.163,4.11,9.163,9.163S95.448,47.548,90.396,47.548z"/>
				<path id="XMLID_18_" fill="#F2723B" d="M90.396,31.789c-3.638,0-6.597,2.96-6.597,6.597c0,3.638,2.959,6.597,6.597,6.597
					c3.637,0,6.597-2.959,6.597-6.597C96.992,34.749,94.033,31.789,90.396,31.789z M90.396,41.773c-1.868,0-3.388-1.52-3.388-3.388
					c0-1.869,1.52-3.389,3.388-3.389c1.868,0,3.388,1.52,3.388,3.389C93.783,40.253,92.263,41.773,90.396,41.773z"/>
				<path id="XMLID_15_" fill="#F2723B" d="M73.163,24.431H64.18c-0.886,0-1.604,0.718-1.604,1.604v5.42
					c0,0.886,0.718,1.604,1.604,1.604h8.983c0.887,0,1.604-0.718,1.604-1.604v-5.42C74.767,25.149,74.049,24.431,73.163,24.431z
					 M71.559,29.85h-5.775v-2.211h5.775V29.85z"/>
			</g>
			<g>
				<rect x="82.482" y="57.634" fill="#F2723B" width="2.633" height="62.991"/>
			</g>
			<g>
				
					<rect x="69.446" y="86.39" transform="matrix(0.7468 0.665 -0.665 0.7468 88.3987 -20.2241)" fill="#F2723B" width="2.632" height="39.2"/>
			</g>
			<g>
				
					<rect x="77.004" y="104.674" transform="matrix(0.6652 0.7467 -0.7467 0.6652 111.4796 -36.645)" fill="#F2723B" width="39.198" height="2.633"/>
			</g>
		</g>
		<g>
			<g>
				<g>
					<path fill="#F2723B" d="M206.529,111.748c-3.493,0-6.786-0.258-9.272-0.729c-3.133-0.59-4.53-1.404-4.53-2.635
						c0-1.232,1.397-2.045,4.53-2.637c2.486-0.471,5.779-0.729,9.272-0.729s6.786,0.258,9.272,0.729
						c3.133,0.592,4.529,1.404,4.529,2.637c0,1.23-1.396,2.045-4.529,2.635C213.315,111.49,210.022,111.748,206.529,111.748z
						 M194.836,108.385c1.146,0.605,5.127,1.496,11.693,1.496s10.547-0.891,11.692-1.496c-1.146-0.607-5.126-1.498-11.692-1.498
						S195.981,107.777,194.836,108.385z"/>
				</g>
				<g>
					<polygon fill="#F2723B" points="215.763,127.32 198.249,127.32 192.727,108.385 196.101,110.436 199.222,125.703 
						214.708,125.703 216.933,110.488 219.107,109.564 					"/>
				</g>
			</g>
			<g>
				<g>
					<g>
						<path fill="#F2723B" stroke="#F2723B" stroke-miterlimit="10" d="M236.065,93.781c-2.506,0-4.545-2.207-4.545-4.92
							c0-2.711,2.039-4.918,4.545-4.918c2.508,0,4.547,2.207,4.547,4.918C240.612,91.574,238.573,93.781,236.065,93.781z
							 M236.065,85.916c-1.418,0-2.572,1.32-2.572,2.945s1.154,2.947,2.572,2.947c1.419,0,2.574-1.322,2.574-2.947
							S237.484,85.916,236.065,85.916z"/>
						<path fill="#F2723B" stroke="#F2723B" stroke-miterlimit="10" d="M252.827,105.377c-3.115,0-6.055-1.209-8.381-3.428
							c-2.326,2.219-5.266,3.428-8.381,3.428c-7.059,0-12.8-6.297-12.8-14.039c0-7.74,5.741-14.039,12.8-14.039
							c3.115,0,6.055,1.209,8.381,3.428c2.326-2.219,5.266-3.428,8.381-3.428c7.059,0,12.801,6.299,12.801,14.039
							C265.628,99.08,259.886,105.377,252.827,105.377z M244.446,99.549c0.279,0,0.547,0.119,0.733,0.326
							c2.047,2.275,4.763,3.529,7.647,3.529c5.971,0,10.828-5.414,10.828-12.066s-4.857-12.066-10.828-12.066
							c-2.885,0-5.601,1.254-7.647,3.529c-0.374,0.416-1.093,0.416-1.466,0c-2.047-2.275-4.764-3.529-7.648-3.529
							c-5.97,0-10.827,5.414-10.827,12.066s4.857,12.066,10.827,12.066c2.885,0,5.602-1.254,7.648-3.529
							C243.9,99.668,244.167,99.549,244.446,99.549z"/>
						<path fill="#F2723B" stroke="#F2723B" stroke-miterlimit="10" d="M252.827,93.781c-2.507,0-4.546-2.207-4.546-4.92
							c0-2.711,2.039-4.918,4.546-4.918c2.506,0,4.545,2.207,4.545,4.918C257.372,91.574,255.333,93.781,252.827,93.781z
							 M252.827,85.916c-1.418,0-2.574,1.32-2.574,2.945s1.156,2.947,2.574,2.947c1.419,0,2.573-1.322,2.573-2.947
							S254.246,85.916,252.827,85.916z"/>
						<path fill="#F2723B" stroke="#F2723B" stroke-miterlimit="10" d="M259.384,59.411c-0.162,0-0.326-0.039-0.478-0.123
							c-0.477-0.264-0.649-0.864-0.386-1.341c4.955-8.956,2.778-16.482,0.754-20.529c0.293,8.87-5.424,16.196-5.674,16.513
							c-0.338,0.428-0.959,0.499-1.385,0.161c-0.427-0.339-0.499-0.959-0.162-1.386c0.059-0.074,5.816-7.476,5.214-15.902
							c-0.061-0.858,0.472-1.625,1.295-1.866c0.824-0.242,1.687,0.118,2.099,0.875c2.291,4.204,5.281,12.795-0.414,23.09
							C260.067,59.227,259.731,59.411,259.384,59.411z"/>
						<path fill="#F2723B" stroke="#F2723B" stroke-miterlimit="10" d="M229.511,59.411c-0.348,0-0.685-0.184-0.865-0.509
							c-5.695-10.295-2.704-18.886-0.414-23.09c0.412-0.758,1.279-1.113,2.1-0.875c0.823,0.242,1.355,1.009,1.293,1.866
							c-0.604,8.45,5.156,15.828,5.215,15.901c0.338,0.427,0.266,1.048-0.16,1.387c-0.428,0.338-1.051,0.265-1.387-0.161
							c-0.25-0.316-5.965-7.642-5.674-16.511c-2.025,4.047-4.201,11.572,0.754,20.527c0.264,0.477,0.092,1.077-0.385,1.341
							C229.835,59.372,229.672,59.411,229.511,59.411z"/>
						<path fill="#F2723B" stroke="#F2723B" stroke-miterlimit="10" d="M263.921,87.875c-0.479-0.037-0.813-0.305-0.937-0.678
							c-1.559-4.74-5.641-7.926-10.157-7.926c-2.885,0-5.601,1.254-7.647,3.529c-0.374,0.416-1.093,0.416-1.466,0
							c-2.047-2.275-4.764-3.529-7.648-3.529c-4.516,0-8.598,3.186-10.156,7.926c-0.124,0.373-0.459,0.641-0.852,0.674
							c-0.402,0.041-0.77-0.17-0.956-0.518c-2.339-4.367-3.575-9.367-3.575-14.459c0-7.017,2.306-13.713,6.493-18.856
							c0.343-0.42,0.965-0.486,1.388-0.142c0.422,0.344,0.485,0.966,0.142,1.389c-3.901,4.791-6.05,11.044-6.05,17.609
							c0,4.033,0.826,8.002,2.404,11.598c2.235-4.377,6.496-7.193,11.162-7.193c3.115,0,6.055,1.209,8.381,3.428
							c2.326-2.219,5.266-3.428,8.381-3.428c4.666,0,8.928,2.814,11.162,7.193c1.578-3.598,2.404-7.566,2.404-11.598
							c0-6.565-2.148-12.818-6.049-17.609c-0.344-0.423-0.281-1.045,0.141-1.389c0.424-0.345,1.047-0.278,1.389,0.142
							c4.187,5.143,6.493,11.839,6.493,18.856c0,5.09-1.237,10.09-3.575,14.459C264.618,87.676,264.283,87.875,263.921,87.875z"/>
						<path fill="#F2723B" stroke="#F2723B" stroke-miterlimit="10" d="M255.246,50.428c-0.177,0-0.357-0.049-0.52-0.148
							c-3.15-1.955-6.704-2.987-10.28-2.987c-3.575,0-7.129,1.032-10.279,2.987c-0.465,0.286-1.072,0.144-1.359-0.318
							c-0.287-0.463-0.145-1.071,0.318-1.358c3.463-2.147,7.377-3.283,11.32-3.283s7.858,1.136,11.32,3.283
							c0.463,0.287,0.605,0.896,0.318,1.358C255.897,50.262,255.577,50.428,255.246,50.428z"/>
						<path fill="#F2723B" stroke="#F2723B" stroke-miterlimit="10" d="M252.497,67.845c-0.545,0-0.986-0.44-0.986-0.986v-2.708
							c0-0.546,0.441-0.986,0.986-0.986s0.986,0.44,0.986,0.986v2.708C253.483,67.405,253.042,67.845,252.497,67.845z"/>
						<path fill="#F2723B" stroke="#F2723B" stroke-miterlimit="10" d="M236.396,67.845c-0.545,0-0.986-0.44-0.986-0.986v-2.708
							c0-0.546,0.441-0.986,0.986-0.986c0.546,0,0.986,0.44,0.986,0.986v2.708C237.382,67.405,236.941,67.845,236.396,67.845z"/>
						<path fill="#F2723B" stroke="#F2723B" stroke-miterlimit="10" d="M267.698,62.7c-0.836,0-1.711-0.052-2.623-0.154
							c-0.542-0.062-0.932-0.55-0.871-1.091s0.54-0.929,1.092-0.869c4.947,0.56,8.546-0.541,10.699-3.263
							c0.338-0.427,0.957-0.5,1.386-0.162c0.427,0.338,0.499,0.958,0.161,1.385C275.357,61.307,272.054,62.7,267.698,62.7z"/>
						<path fill="#F2723B" stroke="#F2723B" stroke-miterlimit="10" d="M263.667,59.409c-0.096,0-0.191-0.015-0.285-0.043
							c-0.521-0.158-0.815-0.704-0.66-1.225c0.029-0.093,2.996-9.339,16.469-8.698c0.507,0.023,0.911,0.428,0.938,0.934
							c0.004,0.055,0.064,1.353-0.293,3.08c-0.111,0.534-0.636,0.87-1.166,0.767c-0.534-0.111-0.877-0.634-0.766-1.167
							c0.135-0.648,0.199-1.228,0.231-1.672c-11.125-0.14-13.427,7.014-13.523,7.327C264.48,59.135,264.089,59.409,263.667,59.409z"
							/>
						<path fill="#F2723B" stroke="#F2723B" stroke-miterlimit="10" d="M221.194,62.7c-4.355,0-7.659-1.392-9.844-4.154
							c-0.338-0.427-0.266-1.047,0.162-1.385c0.429-0.338,1.048-0.265,1.385,0.162c2.152,2.721,5.75,3.821,10.7,3.263
							c0.552-0.053,1.03,0.329,1.092,0.869c0.061,0.541-0.329,1.029-0.871,1.091C222.906,62.648,222.03,62.7,221.194,62.7z"/>
						<path fill="#F2723B" stroke="#F2723B" stroke-miterlimit="10" d="M225.226,59.411c-0.424,0-0.814-0.274-0.943-0.699
							c-0.097-0.312-2.398-7.329-13.219-7.329c-0.102,0-0.203,0-0.305,0.002c0.031,0.443,0.098,1.021,0.232,1.672
							c0.11,0.533-0.232,1.056-0.767,1.167c-0.533,0.104-1.054-0.232-1.166-0.767c-0.358-1.728-0.297-3.025-0.294-3.08
							c0.027-0.506,0.432-0.91,0.938-0.934c13.487-0.659,16.44,8.605,16.469,8.698c0.156,0.522-0.141,1.072-0.662,1.229
							C225.415,59.397,225.319,59.411,225.226,59.411z"/>
						<path fill="#F2723B" stroke="#F2723B" stroke-miterlimit="10" d="M276.849,79.313c-0.471,0-0.938-0.115-1.367-0.342
							c-0.691-0.365-1.201-0.98-1.431-1.729l-2.235-7.239c-0.076-0.245-0.053-0.511,0.063-0.739l2.453-4.812
							c0.12-0.237,0.333-0.416,0.587-0.494c0.256-0.079,0.53-0.052,0.765,0.077l4.739,2.591c0.225,0.123,0.394,0.329,0.469,0.574
							l2.234,7.241c0.232,0.746,0.158,1.541-0.208,2.234c-0.366,0.691-0.979,1.201-1.728,1.432l-3.474,1.072
							C277.432,79.268,277.139,79.313,276.849,79.313z M273.817,69.803l2.117,6.857c0.156,0.508,0.699,0.791,1.2,0.635l3.474-1.072
							c0.244-0.076,0.445-0.242,0.564-0.469c0.12-0.227,0.145-0.486,0.069-0.73l-2.117-6.858l-3.497-1.912L273.817,69.803z"/>
						<path fill="#F2723B" stroke="#F2723B" stroke-miterlimit="10" d="M275.21,65.887c-0.42,0-0.809-0.27-0.94-0.691l-1.413-4.516
							c-0.162-0.521,0.126-1.073,0.646-1.235c0.521-0.165,1.072,0.126,1.235,0.646l1.413,4.516c0.163,0.521-0.126,1.073-0.646,1.236
							C275.407,65.873,275.308,65.887,275.21,65.887z"/>
					</g>
					<g>
						<path fill="#F2723B" stroke="#F2723B" stroke-miterlimit="10" d="M260.954,116.84l-1.414-1.574
							c8.215-7.377,2.211-15.432,1.951-15.771l1.678-1.293C265.794,101.604,268.713,109.875,260.954,116.84z"/>
					</g>
					<g>
						<path fill="#F2723B" stroke="#F2723B" stroke-miterlimit="10" d="M231.169,119.195c-10.643-6.193-6.736-16.408-4.109-19.809
							l1.678,1.291c-0.26,0.34-6.265,8.395,1.95,15.771L231.169,119.195z"/>
					</g>
				</g>
			</g>
			<path fill="none" stroke="#F2723B" stroke-width="3" stroke-miterlimit="10" d="M238.785,114.314v8.291
				c0,2.096-1.714,3.809-3.808,3.809l0,0c-2.095,0-3.809-1.713-3.809-3.809v-8.291"/>
			<path fill="none" stroke="#F2723B" stroke-width="3" stroke-miterlimit="10" d="M259.208,114.314v8.291
				c0,2.096-1.713,3.809-3.808,3.809l0,0c-2.095,0-3.808-1.713-3.808-3.809v-8.291"/>
			<path fill="none" stroke="#F2723B" stroke-width="1.5" stroke-miterlimit="10" d="M250.923,116.17v4.146
				c0,1.047-0.856,1.904-1.904,1.904l0,0c-1.047,0-1.903-0.857-1.903-1.904v-4.146h-4.599v4.146c0,1.047-0.857,1.904-1.904,1.904
				l0,0c-1.047,0-1.904-0.857-1.904-1.904v-4.146"/>
			<g>
				<g>
					<g>
						<g>
							<path fill="#F2723B" stroke="#F2723B" stroke-miterlimit="10" d="M182.653,59.411c-0.162,0-0.326-0.039-0.477-0.123
								c-0.477-0.264-0.649-0.864-0.385-1.341c4.954-8.956,2.777-16.482,0.752-20.529c0.295,8.87-5.424,16.196-5.673,16.513
								c-0.338,0.428-0.959,0.499-1.385,0.161c-0.427-0.339-0.499-0.959-0.162-1.386c0.058-0.074,5.817-7.476,5.214-15.902
								c-0.061-0.858,0.471-1.625,1.295-1.866c0.824-0.242,1.688,0.118,2.099,0.875c2.29,4.204,5.281,12.795-0.414,23.09
								C183.337,59.227,183.001,59.411,182.653,59.411z"/>
							<path fill="#F2723B" stroke="#F2723B" stroke-miterlimit="10" d="M152.78,59.411c-0.348,0-0.684-0.184-0.864-0.509
								c-5.696-10.295-2.705-18.886-0.414-23.09c0.411-0.758,1.279-1.113,2.1-0.875c0.823,0.242,1.354,1.009,1.292,1.866
								c-0.604,8.45,5.156,15.828,5.215,15.901c0.338,0.427,0.266,1.048-0.161,1.387c-0.428,0.338-1.05,0.265-1.386-0.161
								c-0.25-0.316-5.965-7.642-5.674-16.511c-2.024,4.047-4.2,11.572,0.754,20.527c0.264,0.477,0.091,1.077-0.385,1.341
								C153.105,59.372,152.942,59.411,152.78,59.411z"/>
							<path fill="#F2723B" stroke="#F2723B" stroke-miterlimit="10" d="M187.192,87.875c-0.479-0.037-0.814-0.305-0.938-0.678
								c-1.559-4.74-5.641-7.926-10.157-7.926c-2.885,0-5.601,1.254-7.648,3.529c-0.374,0.416-1.092,0.416-1.466,0
								c-2.047-2.275-4.763-3.529-7.648-3.529c-4.517,0-8.599,3.186-10.157,7.926c-0.124,0.373-0.459,0.641-0.852,0.674
								c-0.402,0.041-0.769-0.17-0.956-0.518c-2.339-4.367-3.576-9.367-3.576-14.459c0-7.017,2.306-13.713,6.493-18.856
								c0.343-0.42,0.965-0.486,1.388-0.142c0.422,0.344,0.485,0.966,0.142,1.389c-3.901,4.791-6.05,11.044-6.05,17.609
								c0,4.033,0.827,8.002,2.404,11.598c2.236-4.377,6.497-7.193,11.163-7.193c3.115,0,6.055,1.209,8.381,3.428
								c2.326-2.219,5.266-3.428,8.381-3.428c4.666,0,8.927,2.814,11.163,7.193c1.577-3.598,2.404-7.566,2.404-11.598
								c0-6.565-2.149-12.818-6.051-17.609c-0.344-0.423-0.279-1.045,0.143-1.389c0.423-0.345,1.045-0.278,1.387,0.142
								c4.188,5.143,6.494,11.839,6.494,18.856c0,5.09-1.237,10.09-3.576,14.459C187.889,87.676,187.554,87.875,187.192,87.875z"/>
							<path fill="#F2723B" stroke="#F2723B" stroke-miterlimit="10" d="M178.517,50.428c-0.178,0-0.357-0.049-0.52-0.148
								c-3.15-1.955-6.705-2.987-10.28-2.987s-7.129,1.032-10.28,2.987c-0.463,0.286-1.071,0.144-1.358-0.318
								c-0.287-0.463-0.145-1.071,0.318-1.358c3.462-2.147,7.377-3.283,11.32-3.283s7.858,1.136,11.321,3.283
								c0.462,0.287,0.604,0.896,0.317,1.358C179.169,50.262,178.847,50.428,178.517,50.428z"/>
							<path fill="#F2723B" stroke="#F2723B" stroke-miterlimit="10" d="M190.969,62.7c-0.836,0-1.71-0.052-2.624-0.154
								c-0.541-0.062-0.932-0.55-0.871-1.091c0.062-0.541,0.541-0.929,1.092-0.869c4.948,0.56,8.547-0.541,10.7-3.263
								c0.337-0.427,0.956-0.5,1.386-0.162c0.428,0.338,0.5,0.958,0.161,1.385C198.628,61.307,195.324,62.7,190.969,62.7z"/>
							<path fill="#F2723B" stroke="#F2723B" stroke-miterlimit="10" d="M186.938,59.409c-0.095,0-0.191-0.015-0.286-0.043
								c-0.52-0.158-0.814-0.704-0.658-1.225c0.027-0.093,2.994-9.339,16.467-8.698c0.508,0.023,0.912,0.428,0.939,0.934
								c0.002,0.055,0.064,1.353-0.295,3.08c-0.111,0.534-0.635,0.87-1.166,0.767c-0.533-0.111-0.877-0.634-0.766-1.167
								c0.135-0.648,0.201-1.228,0.232-1.672c-11.125-0.14-13.428,7.014-13.523,7.327C187.751,59.135,187.359,59.409,186.938,59.409
								z"/>
							<path fill="#F2723B" stroke="#F2723B" stroke-miterlimit="10" d="M144.465,62.7c-4.355,0-7.659-1.392-9.844-4.154
								c-0.338-0.427-0.266-1.047,0.162-1.385c0.429-0.338,1.048-0.265,1.385,0.162c2.153,2.721,5.75,3.821,10.7,3.263
								c0.551-0.053,1.03,0.329,1.091,0.869c0.061,0.541-0.33,1.029-0.871,1.091C146.177,62.648,145.301,62.7,144.465,62.7z"/>
							<path fill="#F2723B" stroke="#F2723B" stroke-miterlimit="10" d="M148.496,59.411c-0.424,0-0.815-0.274-0.944-0.699
								c-0.097-0.312-2.398-7.329-13.219-7.329c-0.101,0-0.202,0-0.304,0.002c0.032,0.443,0.097,1.021,0.232,1.672
								c0.111,0.533-0.232,1.056-0.766,1.167c-0.534,0.104-1.055-0.232-1.167-0.767c-0.358-1.728-0.296-3.025-0.294-3.08
								c0.027-0.506,0.432-0.91,0.938-0.934c13.487-0.659,16.44,8.605,16.467,8.698c0.157,0.522-0.14,1.072-0.661,1.229
								C148.685,59.397,148.589,59.411,148.496,59.411z"/>
							<path fill="#F2723B" stroke="#F2723B" stroke-miterlimit="10" d="M200.119,79.313c-0.471,0-0.938-0.115-1.366-0.342
								c-0.693-0.365-1.201-0.98-1.432-1.729l-2.236-7.239c-0.076-0.245-0.053-0.511,0.064-0.739l2.453-4.812
								c0.12-0.237,0.333-0.416,0.588-0.494c0.255-0.079,0.529-0.052,0.764,0.077l4.738,2.591c0.226,0.123,0.395,0.329,0.469,0.574
								l2.235,7.241c0.231,0.746,0.157,1.541-0.208,2.234c-0.366,0.691-0.979,1.201-1.729,1.432l-3.473,1.072
								C200.702,79.268,200.409,79.313,200.119,79.313z M197.088,69.803l2.117,6.857c0.155,0.508,0.698,0.791,1.2,0.635l3.473-1.072
								c0.245-0.076,0.447-0.242,0.566-0.469s0.143-0.486,0.068-0.73l-2.117-6.858l-3.498-1.912L197.088,69.803z"/>
							<path fill="#F2723B" stroke="#F2723B" stroke-miterlimit="10" d="M198.48,65.887c-0.42,0-0.809-0.27-0.94-0.691l-1.414-4.516
								c-0.162-0.521,0.127-1.073,0.646-1.235c0.521-0.165,1.073,0.126,1.236,0.646l1.413,4.516
								c0.163,0.521-0.126,1.073-0.646,1.236C198.677,65.873,198.578,65.887,198.48,65.887z"/>
						</g>
						<g>
							<path fill="#F2723B" stroke="#F2723B" stroke-width="1.3567" stroke-miterlimit="10" d="M152.998,119.195
								c-10.643-11.4-6.737-30.201-4.11-36.459l1.677,2.379c-0.259,0.623-6.264,15.449,1.951,29.025L152.998,119.195z"/>
						</g>
						<g>
							<path fill="#F2723B" stroke="#F2723B" stroke-width="1.3567" stroke-miterlimit="10" d="M183.276,119.195
								c10.643-11.4,6.737-30.201,4.111-36.459l-1.678,2.379c0.26,0.623,6.264,15.449-1.951,29.025L183.276,119.195z"/>
						</g>
					</g>
				</g>
				<path fill="none" stroke="#F2723B" stroke-width="3" stroke-miterlimit="10" d="M162.055,114.314v8.291
					c0,2.096-1.713,3.809-3.808,3.809l0,0c-2.095,0-3.808-1.713-3.808-3.809v-8.291"/>
				<path fill="none" stroke="#F2723B" stroke-width="3" stroke-miterlimit="10" d="M182.479,114.314v8.291
					c0,2.096-1.714,3.809-3.808,3.809l0,0c-2.095,0-3.809-1.713-3.809-3.809v-8.291"/>
				<path fill="none" stroke="#F2723B" stroke-width="1.5" stroke-miterlimit="10" d="M174.193,116.17v4.146
					c0,1.047-0.856,1.904-1.903,1.904l0,0c-1.048,0-1.905-0.857-1.905-1.904v-4.146h-4.599v4.146c0,1.047-0.856,1.904-1.904,1.904
					l0,0c-1.047,0-1.904-0.857-1.904-1.904v-4.146"/>
				<path fill="#F2723B" stroke="#F2723B" stroke-miterlimit="10" d="M168.835,88.357c-2.024,4.047-4.201,11.572,0.754,20.527
					c0.264,0.477,0.091,1.076-0.385,1.34c-0.151,0.084-0.315,0.125-0.477,0.125c-0.348,0-0.684-0.186-0.864-0.51
					c-5.696-10.295-2.705-18.885-0.414-23.09c0.411-0.758,1.279-1.113,2.1-0.875c0.823,0.242,1.354,1.01,1.292,1.867L168.835,88.357
					z"/>
			</g>
		</g>
	</g>
</g>
<g id="Layer_3" display="none">
	<g display="inline">
		<g>
			<g>
				<path fill="#F2723B" d="M163.025,91.961c-13.754,0-24.942-11.189-24.942-24.944V46.192c0-0.817,0.662-1.479,1.479-1.479h46.927
					c0.817,0,1.479,0.662,1.479,1.479v20.825C187.969,80.771,176.78,91.961,163.025,91.961z M141.042,47.671v19.346
					c0,12.122,9.862,21.983,21.983,21.983c12.122,0,21.984-9.861,21.984-21.983V47.671H141.042z"/>
				<path fill="#F2723B" d="M187.635,69.514c-0.555,0-1.066-0.093-1.45-0.174c-0.686-0.144-1.175-0.747-1.175-1.448V51.58
					c0-0.701,0.491-1.306,1.178-1.449c0.409-0.085,0.902-0.173,1.447-0.173c4.55,0,8.251,4.387,8.251,9.778
					S192.185,69.514,187.635,69.514z M187.969,52.931v13.609c2.763-0.223,4.958-3.189,4.958-6.805
					C192.927,56.122,190.731,53.154,187.969,52.931z"/>
				<path fill="#F2723B" d="M138.417,69.514c-4.55,0-8.252-4.387-8.252-9.778s3.702-9.778,8.252-9.778
					c0.545,0,1.038,0.088,1.447,0.173c0.687,0.144,1.178,0.748,1.178,1.449v16.313c0,0.701-0.49,1.305-1.175,1.448
					C139.483,69.421,138.972,69.514,138.417,69.514z M138.083,52.931c-2.764,0.223-4.958,3.19-4.958,6.805
					c0,3.615,2.194,6.582,4.958,6.805V52.931z"/>
				<path fill="#F2723B" d="M198.89,122.355c-0.817,0-1.479-0.662-1.479-1.479v-7.967c0-6.082-4.949-11.029-11.032-11.029h-46.704
					c-6.083,0-11.032,4.947-11.032,11.029v7.967c0,0.816-0.662,1.479-1.479,1.479c-0.816,0-1.479-0.662-1.479-1.479v-7.967
					c0-7.713,6.276-13.988,13.991-13.988h46.704c7.715,0,13.991,6.275,13.991,13.988v7.967
					C200.369,121.693,199.706,122.355,198.89,122.355z"/>
				<path fill="#F2723B" d="M145.547,122.355c-0.817,0-1.479-0.662-1.479-1.479v-6.678c0-0.816,0.662-1.48,1.479-1.48
					s1.479,0.664,1.479,1.48v6.678C147.026,121.693,146.364,122.355,145.547,122.355z"/>
				<path fill="#F2723B" d="M180.505,122.355c-0.817,0-1.48-0.662-1.48-1.479v-6.678c0-0.816,0.663-1.48,1.48-1.48
					c0.816,0,1.479,0.664,1.479,1.48v6.678C181.983,121.693,181.321,122.355,180.505,122.355z"/>
				<path fill="#F2723B" d="M172.54,101.881h-19.029c-0.817,0-1.479-0.664-1.479-1.48V88.453c0-0.5,0.254-0.969,0.674-1.24
					c0.42-0.273,0.95-0.316,1.407-0.111c5.671,2.52,12.156,2.52,17.826,0c0.458-0.205,0.989-0.162,1.407,0.111
					c0.42,0.271,0.674,0.74,0.674,1.24V100.4C174.02,101.217,173.356,101.881,172.54,101.881z M154.99,98.922h16.07v-8.299
					c-5.181,1.775-10.889,1.777-16.07,0V98.922z"/>
				<path fill="#F2723B" d="M198.935,47.671h-71.818c-2.415,0-4.382-1.966-4.382-4.382c0-2.415,1.967-4.381,4.382-4.381h14.595
					l2.416-14.839c0.894-5.49,5.58-9.476,11.143-9.476h1.819c0.817,0,1.479,0.662,1.479,1.479c0,1.195,1.831,2.525,4.457,2.525
					c2.627,0,4.458-1.33,4.458-2.525c0-0.817,0.662-1.479,1.479-1.479h1.819c5.563,0,10.249,3.985,11.143,9.476l2.416,14.839h14.594
					c2.416,0,4.381,1.966,4.381,4.381C203.315,45.706,201.351,47.671,198.935,47.671z M127.116,41.868
					c-0.784,0-1.422,0.639-1.422,1.422c0,0.785,0.638,1.423,1.422,1.423h71.818c0.784,0,1.422-0.638,1.422-1.423
					c0-0.783-0.638-1.422-1.422-1.422h-15.852c-0.727,0-1.345-0.525-1.461-1.241l-2.617-16.081c-0.66-4.052-4.118-6.992-8.223-6.992
					h-0.602c-0.854,2.335-3.691,4.005-7.155,4.005c-3.463,0-6.301-1.67-7.153-4.005h-0.603c-4.104,0-7.563,2.94-8.223,6.992
					l-2.617,16.081c-0.117,0.716-0.735,1.241-1.46,1.241H127.116z"/>
				<path fill="#F2723B" d="M174.472,41.868H142.97c-0.817,0-1.48-0.662-1.48-1.479c0-0.816,0.663-1.479,1.48-1.479h31.502
					c0.817,0,1.48,0.663,1.48,1.479C175.952,41.206,175.289,41.868,174.472,41.868z"/>
				<path fill="#F2723B" d="M182.29,36.999h-38.528c-0.434,0-0.846-0.19-1.127-0.521c-0.281-0.331-0.403-0.768-0.333-1.196
					l0.739-4.544c0.117-0.717,0.735-1.242,1.461-1.242h37.048c0.726,0,1.344,0.525,1.461,1.242l0.739,4.544
					c0.07,0.429-0.052,0.865-0.333,1.196C183.136,36.808,182.724,36.999,182.29,36.999z M145.502,34.04h35.048l-0.258-1.585H145.76
					L145.502,34.04z"/>
			</g>
			<g>
				<defs>
					<path id="SVGID_1_" d="M193.693,55.504c0,0,3.794,12.956-7.509,13.836c0,0,0.354,11.376-12.165,19.113l-1.479,13.428
						c0,0,18.213-3.977,21.766,0.686c3.553,4.66,4.635,16.469,4.635,16.469v6.371h52.371V49.958L193.693,55.504z"/>
				</defs>
				<clipPath id="SVGID_2_">
					<use xlink:href="#SVGID_1_"  overflow="visible"/>
				</clipPath>
				<g clip-path="url(#SVGID_2_)">
					<g id="XMLID_1_">
						<path id="XMLID_11_" fill="#F2723B" d="M236.73,102.621V65.522c0-0.596-0.482-1.078-1.079-1.078h-47.452
							c-0.596,0-1.078,0.482-1.078,1.078v37.099c0,0.596,0.482,1.078,1.078,1.078h47.452
							C236.248,103.699,236.73,103.217,236.73,102.621z M234.573,101.543h-45.295V66.601h45.295V101.543z"/>
						<path id="XMLID_8_" fill="#F2723B" d="M193.901,95.359h36.049c0.596,0,1.078-0.482,1.078-1.078V69.98
							c0-0.596-0.482-1.078-1.078-1.078h-36.049c-0.596,0-1.079,0.482-1.079,1.078v24.301
							C192.822,94.877,193.306,95.359,193.901,95.359z M194.979,71.059h33.893v22.145h-33.893V71.059z"/>
						<path id="XMLID_5_" fill="#F2723B" d="M211.926,96.205c-1.278,0-2.319,1.039-2.319,2.318s1.041,2.318,2.319,2.318
							s2.318-1.039,2.318-2.318S213.204,96.205,211.926,96.205z M211.926,99.549c-0.564,0-1.024-0.461-1.024-1.025
							s0.46-1.023,1.024-1.023s1.024,0.459,1.024,1.023S212.49,99.549,211.926,99.549z"/>
						<path id="XMLID_2_" fill="#F2723B" d="M224.384,110.92c0.596,0,1.079-0.482,1.079-1.078v-3.77
							c0-0.596-0.483-1.078-1.079-1.078h-24.916c-0.596,0-1.079,0.482-1.079,1.078v3.77c0,0.596,0.483,1.078,1.079,1.078H224.384z
							 M200.546,107.152h22.76v1.611h-22.76V107.152z"/>
					</g>
					<g>
						<g>
							<polygon fill="#F2723B" points="198.807,90.564 197.972,90.01 204.319,80.449 210.889,86.162 222.963,74.857 223.648,75.588 
								210.913,87.512 204.522,81.953 							"/>
						</g>
						<g>
							<rect x="222.586" y="75.383" fill="#F2723B" width="1.003" height="4.455"/>
						</g>
						<g>
							<rect x="218.632" y="74.721" fill="#F2723B" width="4.455" height="1.004"/>
						</g>
					</g>
				</g>
			</g>
		</g>
		<path fill-rule="evenodd" clip-rule="evenodd" fill="#F2723B" stroke="#F2723B" stroke-miterlimit="10" d="M92.059,73.266h22.819
			c0.927,0,1.769,0.379,2.381,0.988l0.002,0.004c0.609,0.611,0.989,1.453,0.989,2.377v41.229c0,0.93-0.38,1.771-0.989,2.383
			c-0.612,0.611-1.453,0.99-2.383,0.99H92.059c-0.928,0-1.771-0.379-2.38-0.99l0,0l-0.003-0.002l-0.007-0.004
			c-0.604-0.613-0.98-1.451-0.98-2.377V76.635c0-0.928,0.376-1.771,0.987-2.381S91.129,73.266,92.059,73.266L92.059,73.266z
			 M100.416,117.531h6.115c0.31,0,0.563-0.25,0.563-0.561c0-0.309-0.254-0.563-0.563-0.563h-6.115c-0.31,0-0.561,0.254-0.561,0.563
			C99.855,117.281,100.106,117.531,100.416,117.531L100.416,117.531z M92.107,77.834c-0.312,0-0.563,0.25-0.563,0.563v35.467
			c0,0.309,0.252,0.561,0.563,0.561h22.72c0.311,0,0.563-0.252,0.563-0.561V78.396c0-0.313-0.253-0.563-0.563-0.563H92.107
			L92.107,77.834z M114.269,78.957h-21.6v34.344h21.6V78.957L114.269,78.957z M114.878,74.389H92.059
			c-0.62,0-1.182,0.256-1.591,0.66c-0.405,0.408-0.657,0.969-0.657,1.586v41.229c0,0.623,0.252,1.184,0.657,1.59l0,0
			c0.409,0.406,0.968,0.658,1.591,0.658h22.819c0.62,0,1.182-0.252,1.588-0.658c0.406-0.408,0.658-0.969,0.658-1.59V76.635
			c0-0.617-0.25-1.178-0.656-1.586h-0.002C116.06,74.641,115.498,74.389,114.878,74.389z"/>
	</g>
</g>
</svg>
