<?xml version="1.0" encoding="utf-8"?>
<!-- Generator: Adobe Illustrator 16.0.0, SVG Export Plug-In . SVG Version: 6.00 Build 0)  -->
<!DOCTYPE svg PUBLIC "-//W3C//DTD SVG 1.1//EN" "http://www.w3.org/Graphics/SVG/1.1/DTD/svg11.dtd">
<svg version="1.1" xmlns="http://www.w3.org/2000/svg" xmlns:xlink="http://www.w3.org/1999/xlink" x="0px" y="0px" width="104px"
	 height="80px" viewBox="0 0 104 80" enable-background="new 0 0 104 80" xml:space="preserve">
<g id="Layer_1">
	<g>
		<path fill="#ADADAD" d="M21.032,21.224c-1.7,0-3.326-0.408-4.707-1.233c-0.377-0.227-0.622-0.624-0.652-1.063
			c-0.245-3.574,1.917-7.306,5.507-9.508c3.59-2.2,7.895-2.434,10.97-0.596c0.377,0.227,0.622,0.624,0.652,1.064
			c0.245,3.574-1.917,7.306-5.507,9.507C25.316,20.607,23.119,21.224,21.032,21.224z M18.357,18.013
			c2.173,0.941,5.042,0.61,7.531-0.914c2.487-1.526,4.083-3.934,4.229-6.297c-2.175-0.941-5.043-0.61-7.531,0.914
			C20.1,13.241,18.503,15.65,18.357,18.013z"/>
		<path fill="#ADADAD" d="M12.97,21.224c-2.088,0-4.285-0.616-6.263-1.829c-3.59-2.201-5.752-5.933-5.507-9.507
			c0.03-0.44,0.275-0.837,0.652-1.064c3.076-1.84,7.382-1.605,10.969,0.596c3.59,2.202,5.752,5.934,5.507,9.508
			c-0.03,0.439-0.275,0.836-0.652,1.063C16.296,20.816,14.668,21.224,12.97,21.224z M3.884,10.802
			c0.146,2.363,1.742,4.771,4.229,6.297c2.487,1.525,5.356,1.856,7.53,0.914c-0.146-2.362-1.742-4.771-4.229-6.297
			C8.926,10.189,6.057,9.858,3.884,10.802z"/>
		<path fill="#ADADAD" d="M20.869,7.103c-0.744,0-1.346-0.603-1.346-1.346V2.505c0-0.744,0.602-1.346,1.346-1.346
			s1.347,0.603,1.347,1.346v3.251C22.215,6.5,21.613,7.103,20.869,7.103z"/>
		<path fill="#ADADAD" d="M26.315,6.173c-0.744,0-1.346-0.603-1.346-1.346V3.35c0-0.743,0.602-1.347,1.346-1.347
			s1.346,0.604,1.346,1.347v1.478C27.662,5.571,27.06,6.173,26.315,6.173z"/>
		<path fill="#ADADAD" d="M13.133,7.103c-0.744,0-1.346-0.603-1.346-1.346V2.505c0-0.744,0.602-1.346,1.346-1.346
			s1.346,0.603,1.346,1.346v3.251C14.479,6.5,13.877,7.103,13.133,7.103z"/>
		<path fill="#ADADAD" d="M7.687,6.173c-0.744,0-1.346-0.603-1.346-1.346V3.35c0-0.743,0.602-1.347,1.346-1.347
			c0.744,0,1.346,0.604,1.346,1.347v1.478C9.033,5.571,8.43,6.173,7.687,6.173z"/>
		<path fill="#ADADAD" d="M17.001,28.723c-0.744,0-1.346-0.603-1.346-1.347V9.474c0-0.744,0.602-1.346,1.346-1.346
			s1.346,0.603,1.346,1.346v17.902C18.347,28.12,17.745,28.723,17.001,28.723z"/>
		<path fill="#ADADAD" d="M56.031,21.224c-1.699,0-3.328-0.408-4.707-1.233c-0.378-0.226-0.623-0.624-0.653-1.064
			c-0.243-3.574,1.918-7.306,5.507-9.507c3.591-2.2,7.897-2.434,10.97-0.596c0.379,0.226,0.623,0.624,0.654,1.064
			c0.242,3.575-1.92,7.307-5.508,9.507C60.316,20.607,58.119,21.224,56.031,21.224z M53.355,18.013
			c2.172,0.94,5.043,0.612,7.532-0.914c2.486-1.524,4.082-3.933,4.229-6.297c-2.173-0.941-5.045-0.61-7.531,0.914
			C55.1,13.241,53.504,15.649,53.355,18.013z"/>
		<path fill="#ADADAD" d="M47.97,21.224c-2.089,0-4.286-0.615-6.265-1.829c-3.589-2.201-5.75-5.932-5.506-9.507
			c0.03-0.44,0.275-0.837,0.652-1.064c3.078-1.84,7.381-1.605,10.97,0.596c3.589,2.201,5.751,5.933,5.507,9.507
			c-0.029,0.439-0.273,0.837-0.652,1.064C51.296,20.816,49.668,21.224,47.97,21.224z M38.884,10.802
			c0.146,2.363,1.741,4.771,4.228,6.297s5.357,1.859,7.532,0.914c-0.147-2.363-1.743-4.772-4.229-6.297
			C43.926,10.189,41.057,9.858,38.884,10.802z"/>
		<path fill="#ADADAD" d="M55.867,7.103c-0.744,0-1.346-0.603-1.346-1.346V2.505c0-0.744,0.602-1.346,1.346-1.346
			s1.346,0.603,1.346,1.346v3.251C57.213,6.5,56.611,7.103,55.867,7.103z"/>
		<path fill="#ADADAD" d="M61.313,6.173c-0.743,0-1.347-0.603-1.347-1.346V3.35c0-0.743,0.604-1.347,1.347-1.347
			c0.744,0,1.347,0.604,1.347,1.347v1.478C62.66,5.571,62.058,6.173,61.313,6.173z"/>
		<path fill="#ADADAD" d="M48.133,7.103c-0.744,0-1.346-0.603-1.346-1.346V2.505c0-0.744,0.602-1.346,1.346-1.346
			s1.346,0.603,1.346,1.346v3.251C49.479,6.5,48.877,7.103,48.133,7.103z"/>
		<path fill="#ADADAD" d="M42.686,6.173c-0.744,0-1.346-0.603-1.346-1.346V3.35c0-0.743,0.602-1.347,1.346-1.347
			s1.346,0.604,1.346,1.347v1.478C44.032,5.571,43.43,6.173,42.686,6.173z"/>
		<path fill="#ADADAD" d="M52,28.723c-0.744,0-1.346-0.603-1.346-1.347V9.474c0-0.744,0.602-1.346,1.346-1.346
			c0.744,0,1.347,0.603,1.347,1.346v17.902C53.347,28.12,52.744,28.723,52,28.723z"/>
		<path fill="#ADADAD" d="M91.029,21.224c-1.699,0-3.326-0.408-4.706-1.233c-0.378-0.227-0.622-0.624-0.652-1.063
			c-0.245-3.574,1.917-7.306,5.507-9.508c3.592-2.2,7.896-2.434,10.971-0.596c0.377,0.227,0.621,0.624,0.652,1.064
			c0.244,3.574-1.918,7.306-5.508,9.507C95.314,20.607,93.117,21.224,91.029,21.224z M88.355,18.013
			c2.174,0.941,5.042,0.61,7.531-0.914c2.486-1.526,4.083-3.934,4.229-6.297c-2.173-0.941-5.043-0.61-7.53,0.914
			C90.098,13.241,88.502,15.65,88.355,18.013z"/>
		<path fill="#ADADAD" d="M82.969,21.224c-2.088,0-4.285-0.616-6.264-1.829c-3.591-2.201-5.752-5.933-5.508-9.507
			c0.03-0.44,0.275-0.837,0.652-1.064c3.076-1.838,7.381-1.604,10.97,0.596c3.591,2.202,5.752,5.934,5.507,9.508
			c-0.029,0.439-0.274,0.836-0.652,1.063C86.295,20.816,84.666,21.224,82.969,21.224z M73.883,10.802
			c0.146,2.363,1.741,4.771,4.229,6.297c2.488,1.525,5.357,1.856,7.531,0.914c-0.146-2.362-1.742-4.771-4.23-6.297
			C78.924,10.19,76.055,9.86,73.883,10.802z"/>
		<path fill="#ADADAD" d="M90.867,7.103c-0.744,0-1.347-0.603-1.347-1.346V2.505c0-0.744,0.603-1.346,1.347-1.346
			s1.346,0.603,1.346,1.346v3.251C92.213,6.5,91.611,7.103,90.867,7.103z"/>
		<path fill="#ADADAD" d="M96.313,6.173c-0.744,0-1.347-0.603-1.347-1.346V3.35c0-0.743,0.603-1.347,1.347-1.347
			S97.66,2.606,97.66,3.35v1.478C97.66,5.571,97.058,6.173,96.313,6.173z"/>
		<path fill="#ADADAD" d="M83.131,7.103c-0.744,0-1.346-0.603-1.346-1.346V2.505c0-0.744,0.602-1.346,1.346-1.346
			s1.347,0.603,1.347,1.346v3.251C84.478,6.5,83.875,7.103,83.131,7.103z"/>
		<path fill="#ADADAD" d="M77.685,6.173c-0.744,0-1.347-0.603-1.347-1.346V3.35c0-0.743,0.603-1.347,1.347-1.347
			c0.743,0,1.347,0.604,1.347,1.347v1.478C79.031,5.571,78.428,6.173,77.685,6.173z"/>
		<path fill="#ADADAD" d="M86.999,28.723c-0.744,0-1.347-0.603-1.347-1.347V9.474c0-0.744,0.603-1.346,1.347-1.346
			s1.347,0.603,1.347,1.346v17.902C88.346,28.12,87.743,28.723,86.999,28.723z"/>
		<path fill="#ADADAD" d="M101.473,28.723H82.455c-0.744,0-1.346-0.603-1.346-1.347c0-0.743,0.602-1.346,1.346-1.346h19.018
			c0.744,0,1.346,0.603,1.346,1.346C102.818,28.12,102.217,28.723,101.473,28.723z"/>
		<path fill="#ADADAD" d="M74.859,28.723H45.434c-0.744,0-1.346-0.603-1.346-1.347c0-0.743,0.602-1.346,1.346-1.346h29.426
			c0.744,0,1.346,0.603,1.346,1.346C76.205,28.12,75.604,28.723,74.859,28.723z"/>
		<path fill="#ADADAD" d="M24.567,28.723h-2.692c-0.744,0-1.347-0.603-1.347-1.347c0-0.743,0.603-1.346,1.347-1.346h2.692
			c0.744,0,1.346,0.603,1.346,1.346C25.913,28.12,25.311,28.723,24.567,28.723z"/>
		<path fill="#ADADAD" d="M36.683,28.723h-6.058c-0.744,0-1.346-0.603-1.346-1.347c0-0.743,0.602-1.346,1.346-1.346h6.058
			c0.744,0,1.346,0.603,1.346,1.346C38.029,28.12,37.427,28.723,36.683,28.723z"/>
		<path fill="#ADADAD" d="M45.434,28.723h-2.692c-0.744,0-1.346-0.603-1.346-1.347c0-0.743,0.602-1.346,1.346-1.346h2.692
			c0.744,0,1.346,0.603,1.346,1.346C46.78,28.12,46.178,28.723,45.434,28.723z"/>
		<path fill="#ADADAD" d="M21.875,28.723H2.527c-0.744,0-1.346-0.603-1.346-1.347c0-0.743,0.602-1.346,1.346-1.346h19.347
			c0.744,0,1.346,0.603,1.346,1.346C23.221,28.12,22.619,28.723,21.875,28.723z"/>
		<path fill="#ADADAD" d="M21.032,52.188c-1.7,0-3.326-0.408-4.707-1.232c-0.377-0.227-0.622-0.625-0.652-1.064
			c-0.245-3.574,1.917-7.305,5.507-9.506c3.59-2.2,7.895-2.433,10.97-0.597c0.377,0.226,0.622,0.624,0.652,1.063
			c0.245,3.575-1.917,7.307-5.507,9.506C25.316,51.57,23.119,52.188,21.032,52.188z M18.357,48.977
			c2.173,0.941,5.042,0.611,7.531-0.914c2.487-1.525,4.083-3.934,4.229-6.297c-2.175-0.94-5.043-0.611-7.531,0.914
			S18.503,46.615,18.357,48.977z"/>
		<path fill="#ADADAD" d="M12.97,52.188c-2.088,0-4.285-0.617-6.263-1.83c-3.59-2.199-5.752-5.932-5.507-9.506
			c0.03-0.439,0.275-0.838,0.652-1.063c3.076-1.839,7.382-1.605,10.969,0.597c3.59,2.202,5.752,5.932,5.507,9.506
			c-0.03,0.439-0.275,0.838-0.652,1.064C16.296,51.779,14.668,52.188,12.97,52.188z M3.884,41.766
			c0.146,2.363,1.742,4.771,4.229,6.297c2.487,1.525,5.356,1.855,7.53,0.914c-0.146-2.361-1.742-4.771-4.229-6.297
			C8.926,41.154,6.057,40.821,3.884,41.766z"/>
		<path fill="#ADADAD" d="M20.869,38.066c-0.744,0-1.346-0.603-1.346-1.346v-3.251c0-0.744,0.602-1.347,1.346-1.347
			s1.347,0.603,1.347,1.347v3.251C22.215,37.463,21.613,38.066,20.869,38.066z"/>
		<path fill="#ADADAD" d="M26.315,37.137c-0.744,0-1.346-0.603-1.346-1.346v-1.478c0-0.744,0.602-1.347,1.346-1.347
			s1.346,0.603,1.346,1.347v1.478C27.662,36.534,27.06,37.137,26.315,37.137z"/>
		<path fill="#ADADAD" d="M13.133,38.066c-0.744,0-1.346-0.603-1.346-1.346v-3.251c0-0.744,0.602-1.347,1.346-1.347
			s1.346,0.603,1.346,1.347v3.251C14.479,37.463,13.877,38.066,13.133,38.066z"/>
		<path fill="#ADADAD" d="M7.687,37.137c-0.744,0-1.346-0.603-1.346-1.346v-1.478c0-0.744,0.602-1.347,1.346-1.347
			c0.744,0,1.346,0.603,1.346,1.347v1.478C9.033,36.534,8.43,37.137,7.687,37.137z"/>
		<path fill="#ADADAD" d="M17.001,59.686c-0.744,0-1.346-0.602-1.346-1.346V40.437c0-0.743,0.602-1.345,1.346-1.345
			s1.346,0.603,1.346,1.345V58.34C18.347,59.084,17.745,59.686,17.001,59.686z"/>
		<path fill="#ADADAD" d="M56.031,52.188c-1.699,0-3.328-0.408-4.707-1.232c-0.378-0.227-0.623-0.625-0.653-1.064
			c-0.243-3.574,1.918-7.305,5.507-9.506c3.591-2.2,7.897-2.433,10.97-0.597c0.379,0.226,0.623,0.624,0.654,1.063
			c0.242,3.575-1.92,7.307-5.508,9.506C60.316,51.57,58.119,52.188,56.031,52.188z M53.355,48.977
			c2.172,0.941,5.043,0.613,7.532-0.914c2.486-1.523,4.082-3.934,4.229-6.297c-2.173-0.94-5.045-0.611-7.531,0.914
			S53.504,46.613,53.355,48.977z"/>
		<path fill="#ADADAD" d="M47.97,52.188c-2.089,0-4.286-0.615-6.265-1.83c-3.589-2.199-5.75-5.932-5.506-9.506
			c0.03-0.439,0.275-0.838,0.652-1.063c3.078-1.839,7.381-1.605,10.97,0.597c3.589,2.202,5.751,5.932,5.507,9.506
			c-0.029,0.439-0.273,0.838-0.652,1.064C51.296,51.779,49.668,52.188,47.97,52.188z M38.884,41.766
			c0.146,2.363,1.741,4.771,4.228,6.297s5.357,1.857,7.532,0.914c-0.147-2.363-1.743-4.771-4.229-6.297
			C43.926,41.154,41.057,40.821,38.884,41.766z"/>
		<path fill="#ADADAD" d="M55.867,38.066c-0.744,0-1.346-0.603-1.346-1.346v-3.251c0-0.744,0.602-1.347,1.346-1.347
			s1.346,0.603,1.346,1.347v3.251C57.213,37.463,56.611,38.066,55.867,38.066z"/>
		<path fill="#ADADAD" d="M61.313,37.137c-0.743,0-1.347-0.603-1.347-1.346v-1.478c0-0.744,0.604-1.347,1.347-1.347
			c0.744,0,1.347,0.603,1.347,1.347v1.478C62.66,36.534,62.058,37.137,61.313,37.137z"/>
		<path fill="#ADADAD" d="M48.133,38.066c-0.744,0-1.346-0.603-1.346-1.346v-3.251c0-0.744,0.602-1.347,1.346-1.347
			s1.346,0.603,1.346,1.347v3.251C49.479,37.463,48.877,38.066,48.133,38.066z"/>
		<path fill="#ADADAD" d="M42.686,37.137c-0.744,0-1.346-0.603-1.346-1.346v-1.478c0-0.744,0.602-1.347,1.346-1.347
			s1.346,0.603,1.346,1.347v1.478C44.032,36.534,43.43,37.137,42.686,37.137z"/>
		<path fill="#ADADAD" d="M52,59.686c-0.744,0-1.346-0.602-1.346-1.346V40.437c0-0.743,0.602-1.345,1.346-1.345
			c0.744,0,1.347,0.603,1.347,1.345V58.34C53.347,59.084,52.744,59.686,52,59.686z"/>
		<path fill="#ADADAD" d="M91.029,52.188c-1.699,0-3.326-0.408-4.706-1.232c-0.378-0.227-0.622-0.625-0.652-1.064
			c-0.245-3.574,1.917-7.305,5.507-9.506c3.592-2.2,7.896-2.433,10.971-0.597c0.377,0.226,0.621,0.624,0.652,1.063
			c0.244,3.575-1.918,7.307-5.508,9.506C95.314,51.57,93.117,52.188,91.029,52.188z M88.355,48.977
			c2.174,0.941,5.042,0.611,7.531-0.914c2.486-1.525,4.083-3.934,4.229-6.297c-2.173-0.94-5.043-0.611-7.53,0.914
			S88.502,46.615,88.355,48.977z"/>
		<path fill="#ADADAD" d="M82.969,52.188c-2.088,0-4.285-0.617-6.264-1.83c-3.591-2.199-5.752-5.932-5.508-9.506
			c0.03-0.439,0.275-0.838,0.652-1.063c3.076-1.836,7.381-1.605,10.97,0.597c3.591,2.202,5.752,5.932,5.507,9.506
			c-0.029,0.439-0.274,0.838-0.652,1.064C86.295,51.779,84.666,52.188,82.969,52.188z M73.883,41.766
			c0.146,2.363,1.741,4.771,4.229,6.297c2.488,1.525,5.357,1.855,7.531,0.914c-0.146-2.361-1.742-4.771-4.23-6.297
			C78.924,41.152,76.055,40.824,73.883,41.766z"/>
		<path fill="#ADADAD" d="M90.867,38.066c-0.744,0-1.347-0.603-1.347-1.346v-3.251c0-0.744,0.603-1.347,1.347-1.347
			s1.346,0.603,1.346,1.347v3.251C92.213,37.463,91.611,38.066,90.867,38.066z"/>
		<path fill="#ADADAD" d="M96.313,37.137c-0.744,0-1.347-0.603-1.347-1.346v-1.478c0-0.744,0.603-1.347,1.347-1.347
			s1.347,0.603,1.347,1.347v1.478C97.66,36.534,97.058,37.137,96.313,37.137z"/>
		<path fill="#ADADAD" d="M83.131,38.066c-0.744,0-1.346-0.603-1.346-1.346v-3.251c0-0.744,0.602-1.347,1.346-1.347
			s1.347,0.603,1.347,1.347v3.251C84.478,37.463,83.875,38.066,83.131,38.066z"/>
		<path fill="#ADADAD" d="M77.685,37.137c-0.744,0-1.347-0.603-1.347-1.346v-1.478c0-0.744,0.603-1.347,1.347-1.347
			c0.743,0,1.347,0.603,1.347,1.347v1.478C79.031,36.534,78.428,37.137,77.685,37.137z"/>
		<path fill="#ADADAD" d="M86.999,59.686c-0.744,0-1.347-0.602-1.347-1.346V40.437c0-0.743,0.603-1.345,1.347-1.345
			s1.347,0.603,1.347,1.345V58.34C88.346,59.084,87.743,59.686,86.999,59.686z"/>
		<path fill="#ADADAD" d="M101.473,59.686H83.131c-0.744,0-1.346-0.602-1.346-1.346c0-0.742,0.602-1.346,1.346-1.346h18.342
			c0.744,0,1.346,0.604,1.346,1.346C102.818,59.084,102.217,59.686,101.473,59.686z"/>
		<path fill="#ADADAD" d="M58.127,59.686h-2.692c-0.744,0-1.347-0.602-1.347-1.346c0-0.742,0.603-1.346,1.347-1.346h2.692
			c0.744,0,1.346,0.604,1.346,1.346C59.473,59.084,58.871,59.686,58.127,59.686z"/>
		<path fill="#ADADAD" d="M75.977,59.686h-4.462c-0.744,0-1.347-0.602-1.347-1.346c0-0.742,0.603-1.346,1.347-1.346h4.462
			c0.744,0,1.346,0.604,1.346,1.346C77.322,59.084,76.721,59.686,75.977,59.686z M67.051,59.686h-4.462
			c-0.744,0-1.347-0.602-1.347-1.346c0-0.742,0.603-1.346,1.347-1.346h4.462c0.744,0,1.347,0.604,1.347,1.346
			C68.397,59.084,67.795,59.686,67.051,59.686z"/>
		<path fill="#ADADAD" d="M83.131,59.686h-2.692c-0.744,0-1.347-0.602-1.347-1.346c0-0.742,0.603-1.346,1.347-1.346h2.692
			c0.744,0,1.347,0.604,1.347,1.346C84.478,59.084,83.875,59.686,83.131,59.686z"/>
		<path fill="#ADADAD" d="M55.435,59.686H42.686c-0.744,0-1.346-0.602-1.346-1.346c0-0.742,0.602-1.346,1.346-1.346h12.749
			c0.744,0,1.347,0.604,1.347,1.346C56.781,59.084,56.179,59.686,55.435,59.686z"/>
		<path fill="#ADADAD" d="M31.058,59.686H2.527c-0.744,0-1.346-0.602-1.346-1.346c0-0.742,0.602-1.346,1.346-1.346h28.53
			c0.744,0,1.346,0.604,1.346,1.346C32.404,59.084,31.802,59.686,31.058,59.686z"/>
		<path fill="#ADADAD" d="M101.473,69.227h-15.17c-0.744,0-1.347-0.604-1.347-1.348c0-0.742,0.603-1.346,1.347-1.346h15.17
			c0.744,0,1.346,0.604,1.346,1.346C102.818,68.623,102.217,69.227,101.473,69.227z"/>
		<path fill="#ADADAD" d="M48.895,69.227h-2.692c-0.744,0-1.346-0.604-1.346-1.348c0-0.742,0.602-1.346,1.346-1.346h2.692
			c0.744,0,1.347,0.604,1.347,1.346C50.242,68.623,49.639,69.227,48.895,69.227z"/>
		<path fill="#ADADAD" d="M78.649,69.227H73.69c-0.744,0-1.347-0.604-1.347-1.348c0-0.742,0.603-1.346,1.347-1.346h4.959
			c0.743,0,1.347,0.604,1.347,1.346C79.996,68.623,79.393,69.227,78.649,69.227z M68.73,69.227h-4.958
			c-0.744,0-1.347-0.604-1.347-1.348c0-0.742,0.603-1.346,1.347-1.346h4.958c0.744,0,1.347,0.604,1.347,1.346
			C70.077,68.623,69.475,69.227,68.73,69.227z M58.813,69.227h-4.96c-0.744,0-1.346-0.604-1.346-1.348
			c0-0.742,0.602-1.346,1.346-1.346h4.96c0.744,0,1.347,0.604,1.347,1.346C60.16,68.623,59.558,69.227,58.813,69.227z"/>
		<path fill="#ADADAD" d="M86.303,69.227h-2.693c-0.744,0-1.346-0.604-1.346-1.348c0-0.742,0.602-1.346,1.346-1.346h2.693
			c0.744,0,1.346,0.604,1.346,1.346C87.648,68.623,87.047,69.227,86.303,69.227z"/>
		<path fill="#ADADAD" d="M46.203,69.227H23.63c-0.744,0-1.347-0.604-1.347-1.348c0-0.742,0.603-1.346,1.347-1.346h22.573
			c0.744,0,1.347,0.604,1.347,1.346C47.549,68.623,46.947,69.227,46.203,69.227z"/>
		<path fill="#ADADAD" d="M11.801,69.227H2.527c-0.744,0-1.346-0.604-1.346-1.348c0-0.742,0.602-1.346,1.346-1.346h9.274
			c0.744,0,1.347,0.604,1.347,1.346C13.148,68.623,12.545,69.227,11.801,69.227z"/>
		<path fill="#ADADAD" d="M101.473,78.842h-15.46c-0.743,0-1.347-0.602-1.347-1.346s0.604-1.346,1.347-1.346h15.46
			c0.744,0,1.346,0.602,1.346,1.346S102.217,78.842,101.473,78.842z"/>
		<path fill="#ADADAD" d="M73.537,78.842H53.174c-0.744,0-1.346-0.602-1.346-1.346s0.602-1.346,1.346-1.346h20.363
			c0.744,0,1.346,0.602,1.346,1.346S74.281,78.842,73.537,78.842z"/>
		<path fill="#ADADAD" d="M45.819,78.842h-9.424c-0.744,0-1.346-0.602-1.346-1.346s0.602-1.346,1.346-1.346h9.424
			c0.744,0,1.346,0.602,1.346,1.346S46.563,78.842,45.819,78.842z"/>
		<path fill="#ADADAD" d="M12.067,78.842H9.375c-0.744,0-1.346-0.602-1.346-1.346S8.63,76.15,9.375,76.15h2.692
			c0.744,0,1.346,0.602,1.346,1.346S12.811,78.842,12.067,78.842z"/>
		<path fill="#ADADAD" d="M29.375,78.842h-4.327c-0.744,0-1.346-0.602-1.346-1.346s0.602-1.346,1.346-1.346h4.327
			c0.744,0,1.346,0.602,1.346,1.346S30.119,78.842,29.375,78.842z M20.72,78.842h-4.327c-0.744,0-1.346-0.602-1.346-1.346
			s0.602-1.346,1.346-1.346h4.327c0.744,0,1.346,0.602,1.346,1.346S21.464,78.842,20.72,78.842z"/>
		<path fill="#ADADAD" d="M36.395,78.842h-2.692c-0.744,0-1.346-0.602-1.346-1.346s0.602-1.346,1.346-1.346h2.692
			c0.744,0,1.346,0.602,1.346,1.346S37.139,78.842,36.395,78.842z"/>
		<path fill="#ADADAD" d="M9.375,78.842H2.527c-0.744,0-1.346-0.602-1.346-1.346s0.602-1.346,1.346-1.346h6.847
			c0.744,0,1.346,0.602,1.346,1.346S10.119,78.842,9.375,78.842z"/>
	</g>
</g>
<g id="Layer_2" display="none">
	<g display="inline">
		<path fill="#ADADAD" d="M101.23,41.706H2.769c-0.724,0-1.311-0.586-1.311-1.311c0-0.725,0.587-1.311,1.311-1.311h98.461
			c0.725,0,1.312,0.586,1.312,1.311C102.542,41.12,101.955,41.706,101.23,41.706z"/>
		<path fill="#ADADAD" d="M34.708,75.192c-0.585,0-1.119-0.395-1.27-0.989C26.825,48.178,5.508,41.717,5.293,41.654
			c-0.696-0.201-1.096-0.929-0.894-1.625c0.201-0.696,0.929-1.096,1.624-0.895c0.229,0.066,22.979,6.958,29.958,34.422
			c0.178,0.701-0.246,1.416-0.949,1.594C34.923,75.179,34.815,75.192,34.708,75.192z"/>
		<path fill="#ADADAD" d="M48.228,75.192c-0.586,0-1.12-0.395-1.271-0.989c-6.596-25.961-27.931-32.486-28.146-32.549
			c-0.694-0.204-1.094-0.932-0.891-1.626c0.202-0.695,0.928-1.096,1.624-0.893c0.229,0.066,22.977,6.958,29.956,34.422
			c0.178,0.701-0.246,1.416-0.949,1.594C48.443,75.179,48.334,75.192,48.228,75.192z"/>
		<path fill="#ADADAD" d="M61.748,75.192c-0.586,0-1.119-0.395-1.271-0.988c-0.618-2.434-1.393-4.802-2.302-7.037
			c-0.273-0.671,0.05-1.437,0.721-1.708c0.67-0.276,1.436,0.049,1.708,0.72c0.956,2.347,1.768,4.829,2.415,7.379
			c0.18,0.701-0.245,1.416-0.947,1.594C61.963,75.179,61.854,75.192,61.748,75.192z"/>
		<path fill="#ADADAD" d="M53.165,56.961c-0.398,0-0.79-0.179-1.048-0.521c-8.606-11.408-19.676-14.754-19.787-14.785
			c-0.695-0.204-1.094-0.932-0.892-1.626c0.203-0.695,0.93-1.096,1.623-0.893c0.485,0.141,11.993,3.587,21.149,15.726
			c0.436,0.577,0.321,1.4-0.257,1.835C53.718,56.876,53.439,56.961,53.165,56.961z"/>
		<path fill="#ADADAD" d="M75.267,75.192c-0.586,0-1.119-0.395-1.271-0.988c-0.522-2.062-1.159-4.077-1.89-5.991
			c-0.258-0.676,0.081-1.434,0.758-1.693c0.677-0.258,1.435,0.082,1.692,0.758c0.767,2.009,1.435,4.122,1.981,6.28
			c0.18,0.701-0.244,1.416-0.946,1.594C75.482,75.179,75.373,75.192,75.267,75.192z"/>
		<path fill="#ADADAD" d="M59.056,49.017c-0.293,0-0.587-0.096-0.83-0.297c-6.489-5.318-12.317-7.049-12.375-7.065
			c-0.696-0.201-1.096-0.929-0.894-1.625c0.201-0.696,0.93-1.096,1.624-0.895c0.259,0.076,6.407,1.899,13.307,7.557
			c0.56,0.459,0.642,1.285,0.183,1.844C59.812,48.854,59.435,49.017,59.056,49.017z"/>
		<path fill="#ADADAD" d="M88.785,75.192c-0.586,0-1.119-0.395-1.271-0.989c-0.663-2.609-1.505-5.141-2.503-7.524
			c-0.279-0.667,0.034-1.436,0.703-1.715c0.665-0.279,1.435,0.034,1.716,0.703c1.048,2.501,1.931,5.155,2.626,7.891
			c0.178,0.701-0.245,1.416-0.948,1.594C89.001,75.179,88.892,75.192,88.785,75.192z"/>
		<path fill="#ADADAD" d="M71.083,47.846c-0.274,0-0.552-0.085-0.787-0.264c-5.855-4.411-10.877-5.913-10.928-5.928
			c-0.694-0.204-1.093-0.932-0.891-1.626c0.203-0.695,0.929-1.096,1.624-0.893c0.221,0.064,5.505,1.63,11.771,6.351
			c0.579,0.438,0.695,1.259,0.259,1.837C71.873,47.666,71.48,47.846,71.083,47.846z"/>
		<path fill="#ADADAD" d="M101.23,48.192h-5.942c-0.725,0-1.312-0.586-1.312-1.312c0-0.724,0.587-1.312,1.312-1.312h5.942
			c0.725,0,1.312,0.588,1.312,1.312C102.542,47.606,101.955,48.192,101.23,48.192z"/>
		<path fill="#ADADAD" d="M101.23,54.943h-6.354c-0.725,0-1.311-0.588-1.311-1.312c0-0.726,0.586-1.312,1.311-1.312h6.354
			c0.725,0,1.312,0.586,1.312,1.312C102.542,54.355,101.955,54.943,101.23,54.943z"/>
		<path fill="#ADADAD" d="M101.23,61.692h-1.697c-0.724,0-1.312-0.588-1.312-1.312s0.588-1.311,1.312-1.311h1.697
			c0.725,0,1.312,0.587,1.312,1.311S101.955,61.692,101.23,61.692z"/>
		<path fill="#ADADAD" d="M101.23,68.441h-6.52c-0.725,0-1.311-0.586-1.311-1.311c0-0.724,0.586-1.312,1.311-1.312h6.52
			c0.725,0,1.312,0.588,1.312,1.312C102.542,67.855,101.955,68.441,101.23,68.441z"/>
		<path fill="#ADADAD" d="M101.23,75.192H89.166c-0.724,0-1.312-0.587-1.312-1.313c0-0.724,0.588-1.311,1.312-1.311h12.064
			c0.725,0,1.312,0.587,1.312,1.311C102.542,74.605,101.955,75.192,101.23,75.192z"/>
		<path fill="#ADADAD" d="M27.215,35.369c-6.173,0-11.195-5.022-11.195-11.195c0-5.083,4.135-9.219,9.219-9.219
			c4.211,0,7.636,3.426,7.636,7.637c0,3.513-2.858,6.372-6.371,6.372c-2.956,0-5.36-2.404-5.36-5.359
			c0-0.725,0.587-1.312,1.312-1.312c0.723,0,1.311,0.587,1.311,1.312c0,1.509,1.228,2.736,2.737,2.736
			c2.067,0,3.749-1.682,3.749-3.749c0-2.765-2.25-5.014-5.014-5.014c-3.638,0-6.596,2.958-6.596,6.596
			c0,4.727,3.846,8.573,8.573,8.573c6.089,0,11.043-4.955,11.043-11.044c0-7.793-6.339-14.132-14.132-14.132
			c-0.725,0-1.311-0.587-1.311-1.311c0-0.725,0.586-1.312,1.311-1.312c9.239,0,16.754,7.517,16.754,16.755
			C40.88,29.239,34.75,35.369,27.215,35.369z"/>
		<path fill="#ADADAD" d="M26.249,41.706c-10.173,0-18.449-8.275-18.449-18.449c0-10.173,8.276-18.45,18.449-18.45
			s18.45,8.277,18.45,18.45C44.699,33.431,36.421,41.706,26.249,41.706z M26.249,7.43c-8.727,0-15.826,7.1-15.826,15.827
			c0,8.727,7.099,15.827,15.826,15.827c8.728,0,15.827-7.101,15.827-15.827C42.076,14.529,34.976,7.43,26.249,7.43z"/>
		<path fill="#ADADAD" d="M55.863,41.706H26.249c-0.725,0-1.311-0.586-1.311-1.311c0-0.725,0.586-1.311,1.311-1.311
			c8.728,0,15.827-7.101,15.827-15.827c0-8.728-7.1-15.827-15.827-15.827c-0.725,0-1.311-0.587-1.311-1.311
			c0-0.725,0.586-1.312,1.311-1.312h29.615c10.173,0,18.449,8.277,18.449,18.45C74.313,33.431,66.036,41.706,55.863,41.706z
			 M35.722,39.084h20.141c8.726,0,15.826-7.101,15.826-15.827c0-8.728-7.101-15.827-15.826-15.827H35.722
			c5.373,3.229,8.977,9.115,8.977,15.827C44.699,29.969,41.095,35.855,35.722,39.084z"/>
		<path fill="#ADADAD" d="M55.863,17.631H51.44c-0.723,0-1.311-0.587-1.311-1.312c0-0.724,0.588-1.311,1.311-1.311h4.423
			c0.724,0,1.312,0.587,1.312,1.311C57.175,17.044,56.587,17.631,55.863,17.631z"/>
		<path fill="#ADADAD" d="M62.595,31.913h-5.498c-0.724,0-1.312-0.587-1.312-1.312c0-0.723,0.588-1.311,1.312-1.311h5.498
			c0.724,0,1.311,0.588,1.311,1.311C63.905,31.326,63.318,31.913,62.595,31.913z"/>
		<path fill="#ADADAD" d="M63.247,68.532c-6.283,0-11.395-5.111-11.395-11.396c0-6.281,5.112-11.393,11.395-11.393
			c6.282,0,11.394,5.111,11.394,11.393C74.641,63.421,69.529,68.532,63.247,68.532z M63.247,48.366
			c-4.837,0-8.771,3.935-8.771,8.771c0,4.839,3.934,8.773,8.771,8.773s8.771-3.935,8.771-8.773
			C72.019,52.301,68.084,48.366,63.247,48.366z"/>
		<path fill="#ADADAD" d="M63.247,62.327c-2.861,0-5.188-2.328-5.188-5.19c0-0.723,0.586-1.311,1.311-1.311
			c0.724,0,1.312,0.588,1.312,1.311c0,1.417,1.151,2.568,2.565,2.568c1.415,0,2.566-1.151,2.566-2.568
			c0-1.414-1.151-2.564-2.566-2.564c-0.725,0-1.311-0.587-1.311-1.313c0-0.723,0.586-1.311,1.311-1.311
			c2.861,0,5.188,2.328,5.188,5.188C68.436,59.999,66.108,62.327,63.247,62.327z"/>
		<path fill="#ADADAD" d="M80.67,68.532H63.247c-0.725,0-1.311-0.588-1.311-1.311c0-0.726,0.586-1.312,1.311-1.312
			c4.837,0,8.771-3.935,8.771-8.773c0-4.836-3.935-8.771-8.771-8.771c-0.725,0-1.311-0.588-1.311-1.312
			c0-0.725,0.586-1.311,1.311-1.311H80.67c6.282,0,11.395,5.111,11.395,11.393C92.064,63.421,86.952,68.532,80.67,68.532z
			 M70.512,65.91H80.67c4.837,0,8.771-3.935,8.771-8.773c0-4.836-3.935-8.771-8.771-8.771H70.512
			c2.521,2.093,4.129,5.248,4.129,8.771C74.641,60.662,73.032,63.817,70.512,65.91z"/>
		<path fill="#ADADAD" d="M91.196,41.706c-6.624,0-12.014-5.39-12.014-12.014c0-0.725,0.586-1.312,1.312-1.312
			c0.724,0,1.312,0.587,1.312,1.312c0,5.178,4.213,9.392,9.391,9.392c3.999,0,7.251-3.253,7.251-7.251
			c0-3.055-2.484-5.539-5.539-5.539c-2.298,0-4.168,1.87-4.168,4.168c0,1.694,1.379,3.073,3.073,3.073
			c1.211,0,2.195-0.985,2.195-2.195c0-0.096-0.009-0.189-0.025-0.281c-0.135-0.712,0.334-1.397,1.045-1.532
			c0.718-0.139,1.398,0.334,1.531,1.045c0.048,0.248,0.071,0.504,0.071,0.767c0,2.657-2.161,4.818-4.817,4.818
			c-3.141,0-5.696-2.555-5.696-5.695c0-3.744,3.047-6.792,6.791-6.792c4.501,0,8.162,3.662,8.162,8.162
			C101.07,37.278,96.642,41.706,91.196,41.706z"/>
	</g>
</g>
<g id="Layer_3" display="none">
	<g display="inline">
		<path fill="#ADADAD" d="M70.246,79.054H34.17c-4.171,0-7.564-3.392-7.564-7.563V27.403c0-0.587,0.476-1.062,1.062-1.062h49.081
			c0.586,0,1.061,0.475,1.061,1.062V71.49C77.809,75.662,74.416,79.054,70.246,79.054z M28.729,28.465V71.49
			c0,3.001,2.441,5.439,5.44,5.439h36.076c2.999,0,5.439-2.438,5.439-5.439V28.465H28.729z"/>
		<path fill="#ADADAD" d="M79.852,28.465H24.564c-1.766,0-3.203-1.437-3.203-3.203v-3.67c0-1.766,1.437-3.203,3.203-3.203h55.287
			c1.765,0,3.202,1.437,3.202,3.203v3.67C83.054,27.028,81.616,28.465,79.852,28.465z M24.564,20.513
			c-0.595,0-1.079,0.484-1.079,1.079v3.67c0,0.595,0.484,1.079,1.079,1.079h55.287c0.594,0,1.078-0.484,1.078-1.079v-3.67
			c0-0.595-0.484-1.079-1.078-1.079H24.564z"/>
		<path fill="#ADADAD" d="M27.667,20.513c-0.127,0-0.257-0.022-0.382-0.071c-0.547-0.21-0.82-0.825-0.609-1.372
			c0.113-0.293,2.722-6.86,9.535-8.011c0.077-1.723,1.118-4.852,7.157-6.672c0.057-0.033,0.135-0.082,0.232-0.141
			c4.424-2.686,8.318-3.117,11.581-1.29c1.665-0.482,4.524-0.468,6.463,2.224c1.745,0.165,6.69,0.902,7.889,3.989
			c1.988,0.811,8.885,4.094,8.234,10.392c-0.061,0.583-0.588,0.998-1.166,0.948c-0.583-0.061-1.007-0.583-0.946-1.166
			c0.572-5.542-7.257-8.338-7.337-8.367c-0.35-0.122-0.61-0.417-0.688-0.78c-0.454-2.126-5.062-2.851-6.639-2.938
			c-0.35-0.018-0.665-0.207-0.848-0.504c-1.741-2.839-4.553-1.701-4.671-1.652c-0.321,0.136-0.688,0.104-0.98-0.083
			c-3.94-2.508-8.342,0.167-9.79,1.045c-0.317,0.192-0.462,0.28-0.647,0.335c-6.447,1.916-5.72,5.177-5.686,5.315
			c0.075,0.302,0.015,0.632-0.167,0.885c-0.182,0.253-0.463,0.423-0.774,0.448c-6.277,0.506-8.746,6.725-8.77,6.787
			C28.496,20.255,28.094,20.513,27.667,20.513z"/>
		<path fill="#ADADAD" d="M40.986,15.628c-0.453,0-0.872-0.292-1.014-0.747c-0.521-1.68-2.6-1.828-2.688-1.834
			c-0.583-0.036-1.031-0.536-0.998-1.119c0.033-0.583,0.511-1.04,1.111-1.001c0.147,0.008,3.639,0.22,4.603,3.324
			c0.174,0.56-0.139,1.155-0.699,1.33C41.197,15.612,41.091,15.628,40.986,15.628z"/>
		<path fill="#ADADAD" d="M46.439,9.798c-0.134,0-0.271-0.026-0.403-0.08c-0.542-0.223-0.801-0.844-0.578-1.386
			c0.049-0.123,1.283-2.988,5.694-1.841c0.568,0.146,0.909,0.726,0.762,1.294c-0.146,0.568-0.722,0.914-1.294,0.761
			c-2.598-0.673-3.193,0.581-3.199,0.594C47.252,9.55,46.856,9.798,46.439,9.798z"/>
		<path fill="#ADADAD" d="M57.43,10.091c-0.158,0-0.317-0.035-0.468-0.108c-0.526-0.258-0.743-0.895-0.485-1.42
			c0.795-1.62,2.174-2.739,4.098-3.326c0.528-0.252,1.173-0.025,1.424,0.506c0.251,0.53,0.035,1.163-0.494,1.415
			c-0.051,0.024-0.157,0.064-0.311,0.111c-0.499,0.153-2.018,0.616-2.811,2.229C58.199,9.874,57.821,10.091,57.43,10.091z"/>
		<path fill="#ADADAD" d="M64.269,15.628c-0.075,0-0.15-0.009-0.227-0.025c-0.573-0.125-0.937-0.69-0.813-1.264
			c0.926-4.237,4.997-5.349,5.17-5.394c0.573-0.142,1.147,0.191,1.296,0.759c0.148,0.565-0.188,1.144-0.753,1.294
			c-0.129,0.036-2.994,0.853-3.637,3.793C65.197,15.289,64.757,15.628,64.269,15.628z"/>
		<path fill="#ADADAD" d="M64.415,62.946H40c-0.587,0-1.062-0.475-1.062-1.062V37.47c0-0.587,0.475-1.062,1.062-1.062h24.415
			c0.586,0,1.062,0.475,1.062,1.062v24.415C65.477,62.472,65.001,62.946,64.415,62.946z M41.062,60.823h22.291V38.532H41.062V60.823
			z"/>
		<path fill="#ADADAD" d="M40,62.946c-0.272,0-0.543-0.104-0.751-0.311c-0.415-0.415-0.415-1.087,0-1.502l24.415-24.415
			c0.415-0.415,1.086-0.415,1.502,0c0.415,0.415,0.415,1.087,0,1.501L40.751,62.636C40.543,62.843,40.272,62.946,40,62.946z"/>
		<path fill="#ADADAD" d="M58.982,57.514c-0.271,0-0.544-0.104-0.751-0.311l-13.549-13.55c-0.415-0.415-0.415-1.087,0-1.502
			c0.414-0.414,1.086-0.414,1.501,0l13.55,13.55c0.415,0.415,0.415,1.087,0,1.502C59.526,57.41,59.253,57.514,58.982,57.514z"/>
		<path fill="#ADADAD" d="M81.99,79.054H22.424c-0.587,0-1.062-0.475-1.062-1.061c0-0.587,0.475-1.063,1.062-1.063H81.99
			c0.587,0,1.063,0.477,1.063,1.063C83.054,78.579,82.577,79.054,81.99,79.054z"/>
	</g>
</g>
</svg>
