<?xml version="1.0" encoding="utf-8"?>
<!-- Generator: Adobe Illustrator 16.0.0, SVG Export Plug-In . SVG Version: 6.00 Build 0)  -->
<!DOCTYPE svg PUBLIC "-//W3C//DTD SVG 1.1//EN" "http://www.w3.org/Graphics/SVG/1.1/DTD/svg11.dtd">
<svg version="1.1" id="Layer_1" xmlns="http://www.w3.org/2000/svg" xmlns:xlink="http://www.w3.org/1999/xlink" x="0px" y="0px"
	 width="110px" height="148px" viewBox="0 0 110 148" enable-background="new 0 0 110 148" xml:space="preserve">
<g>
	<g>
		<path fill="#FFFFFF" d="M55.001,105.992c-18.736,0-33.978-15.242-33.978-33.978V43.646c0-1.113,0.902-2.016,2.016-2.016h63.924
			c1.113,0,2.016,0.902,2.016,2.016v28.369C88.979,90.75,73.736,105.992,55.001,105.992z M25.054,45.661v26.354
			c0,16.513,13.435,29.946,29.947,29.946s29.946-13.434,29.946-29.946V45.661H25.054z"/>
		<path fill="#FFFFFF" d="M88.523,75.415c-0.756,0-1.453-0.125-1.977-0.235c-0.932-0.196-1.6-1.019-1.6-1.973V50.984
			c0-0.955,0.67-1.778,1.605-1.974c0.557-0.115,1.229-0.234,1.971-0.234c6.197,0,11.24,5.975,11.24,13.32
			C99.764,69.44,94.721,75.415,88.523,75.415z M88.979,52.825v18.541c3.764-0.305,6.754-4.346,6.754-9.27
			C95.732,57.172,92.742,53.13,88.979,52.825z"/>
		<path fill="#FFFFFF" d="M21.479,75.415c-6.198,0-11.241-5.975-11.241-13.318c0-7.346,5.042-13.32,11.241-13.32
			c0.742,0,1.413,0.119,1.971,0.234c0.935,0.195,1.604,1.019,1.604,1.974v22.223c0,0.954-0.667,1.776-1.6,1.973
			C22.931,75.29,22.234,75.415,21.479,75.415z M21.023,52.825c-3.765,0.305-6.754,4.347-6.754,9.271c0,4.924,2.99,8.965,6.754,9.27
			V52.825z"/>
		<path fill="#FFFFFF" d="M103.855,147.397c-1.113,0-2.016-0.902-2.016-2.016v-10.85c0-8.285-6.742-15.027-15.027-15.027H23.19
			c-8.287,0-15.027,6.742-15.027,15.027v10.85c0,1.113-0.903,2.016-2.016,2.016c-1.113,0-2.016-0.902-2.016-2.016v-10.85
			c0-10.509,8.551-19.058,19.06-19.058h63.623c10.508,0,19.059,8.549,19.059,19.058v10.85
			C105.871,146.495,104.969,147.397,103.855,147.397z"/>
		<path fill="#FFFFFF" d="M31.19,147.397c-1.113,0-2.015-0.902-2.015-2.016v-9.096c0-1.113,0.902-2.015,2.015-2.015
			c1.114,0,2.016,0.901,2.016,2.015v9.096C33.207,146.495,32.304,147.397,31.19,147.397z"/>
		<path fill="#FFFFFF" d="M78.811,147.397c-1.113,0-2.016-0.902-2.016-2.016v-9.096c0-1.113,0.902-2.015,2.016-2.015
			s2.016,0.901,2.016,2.015v9.096C80.826,146.495,79.924,147.397,78.811,147.397z"/>
		<path fill="#FFFFFF" d="M67.961,119.505H42.04c-1.113,0-2.015-0.902-2.015-2.016v-16.273c0-0.683,0.345-1.319,0.917-1.69
			c0.572-0.372,1.294-0.431,1.917-0.151c7.726,3.433,16.56,3.433,24.284,0c0.623-0.278,1.348-0.222,1.916,0.151
			c0.572,0.371,0.918,1.008,0.918,1.69v16.273C69.977,118.603,69.074,119.505,67.961,119.505z M44.055,115.475h21.89v-11.303
			c-7.057,2.419-14.832,2.42-21.89-0.001V115.475z"/>
		<path fill="#FFFFFF" d="M103.918,45.661H6.084c-3.291,0-5.969-2.678-5.969-5.969s2.678-5.968,5.969-5.968h19.881l3.291-20.214
			c1.217-7.479,7.601-12.908,15.179-12.908h2.478c1.113,0,2.016,0.902,2.016,2.016c0,1.628,2.494,3.44,6.072,3.44
			c3.579,0,6.071-1.813,6.071-3.44c0-1.113,0.902-2.016,2.016-2.016h2.479c7.578,0,13.963,5.429,15.18,12.908l3.291,20.214h19.881
			c3.291,0,5.967,2.677,5.967,5.968S107.209,45.661,103.918,45.661z M6.084,37.756c-1.068,0-1.938,0.869-1.938,1.937
			c0,1.069,0.869,1.938,1.938,1.938h97.833c1.066,0,1.936-0.868,1.936-1.938c0-1.067-0.869-1.937-1.936-1.937H82.322
			c-0.988,0-1.83-0.717-1.988-1.691l-3.566-21.906c-0.898-5.519-5.609-9.524-11.201-9.524h-0.818
			c-1.164,3.181-5.029,5.456-9.747,5.456s-8.583-2.275-9.746-5.456h-0.82c-5.592,0-10.302,4.006-11.202,9.524l-3.565,21.906
			c-0.159,0.975-1.001,1.691-1.989,1.691H6.084z"/>
		<path fill="#FFFFFF" d="M70.594,37.756H27.68c-1.113,0-2.016-0.902-2.016-2.016s0.903-2.016,2.016-2.016h42.914
			c1.113,0,2.016,0.902,2.016,2.016S71.707,37.756,70.594,37.756z"/>
		<path fill="#FFFFFF" d="M81.242,31.122H28.759c-0.591,0-1.152-0.26-1.535-0.709c-0.382-0.451-0.549-1.046-0.454-1.63l1.007-6.19
			c0.159-0.975,1.001-1.691,1.989-1.691h50.468c0.988,0,1.83,0.717,1.99,1.691l1.008,6.19c0.096,0.584-0.072,1.179-0.455,1.63
			C82.395,30.862,81.834,31.122,81.242,31.122z M31.128,27.092h47.745l-0.352-2.159H31.481L31.128,27.092z"/>
	</g>
	<g>
		<path fill="#FFFFFF" stroke="#FFFFFF" stroke-miterlimit="10" d="M65.262,86.753c-2.186,0-4.377-0.559-6.35-1.933
			c-3.176-2.212-5.6-6.492-3.836-10.068c0.851-1.727,2.26-2.847,4.07-3.237c2.313-0.506,5.166,0.304,7.293,2.041
			c1.129,0.924,2.064,2.059,2.969,3.153c1.354,1.64,2.631,3.188,4.4,3.894c0.699,0.286,1.168,0.914,1.23,1.64
			c0.061,0.694-0.275,1.364-0.875,1.741l0,0C71.678,85.55,68.475,86.753,65.262,86.753z M60.584,74.044
			c-0.303,0-0.596,0.027-0.871,0.087c-0.998,0.217-1.75,0.823-2.232,1.808c-1.158,2.344,1.082,5.376,2.963,6.684
			c3.354,2.342,7.787,1.466,11.041-0.198c-1.686-1.029-2.932-2.54-4.143-4.009c-0.861-1.043-1.674-2.027-2.602-2.787
			C63.52,74.626,61.945,74.044,60.584,74.044z M72.738,81.716c-0.002,0-0.002,0-0.004,0l0,0H72.738z"/>
		<path fill="#FFFFFF" stroke="#FFFFFF" stroke-miterlimit="10" d="M35.226,83.983L35.226,83.983
			c-0.598-0.377-0.935-1.047-0.874-1.741c0.063-0.726,0.53-1.354,1.23-1.64c1.771-0.705,3.047-2.254,4.401-3.894
			c0.904-1.095,1.84-2.229,2.969-3.153c2.126-1.737,4.98-2.547,7.293-2.041c1.81,0.391,3.218,1.511,4.069,3.237
			c1.764,3.576-0.66,7.856-3.836,10.068c-1.973,1.374-4.164,1.933-6.349,1.933C40.916,86.753,37.713,85.55,35.226,83.983z
			 M44.65,75.628c-0.928,0.76-1.74,1.744-2.602,2.787c-1.21,1.469-2.456,2.979-4.143,4.009c3.255,1.664,7.688,2.54,11.042,0.198
			c1.88-1.308,4.121-4.34,2.963-6.684c-0.483-0.984-1.235-1.591-2.233-1.808c-0.275-0.06-0.568-0.087-0.87-0.087
			C47.445,74.044,45.872,74.626,44.65,75.628z M36.657,81.716L36.657,81.716c-0.002,0-0.002,0-0.004,0H36.657z"/>
	</g>
</g>
<g>
</g>
<g>
</g>
<g>
</g>
<g>
</g>
<g>
</g>
<g>
</g>
</svg>
