<?xml version="1.0" encoding="utf-8"?>
<!-- Generator: Adobe Illustrator 16.0.0, SVG Export Plug-In . SVG Version: 6.00 Build 0)  -->
<!DOCTYPE svg PUBLIC "-//W3C//DTD SVG 1.1//EN" "http://www.w3.org/Graphics/SVG/1.1/DTD/svg11.dtd">
<svg version="1.1" id="Layer_1" xmlns="http://www.w3.org/2000/svg" xmlns:xlink="http://www.w3.org/1999/xlink" x="0px" y="0px"
	 width="112px" height="110px" viewBox="0 0 112 110" enable-background="new 0 0 112 110" xml:space="preserve">
<g>
	<path fill="#FAB570" d="M33.397,39.37c-2.241,0-4.383-0.537-6.198-1.621c-0.411-0.245-0.676-0.678-0.708-1.155
		c-0.322-4.715,2.542-9.645,7.297-12.56c4.752-2.917,10.446-3.231,14.502-0.808c0.412,0.246,0.676,0.678,0.708,1.155
		c0.322,4.714-2.542,9.645-7.296,12.561C39.076,38.552,36.163,39.37,33.397,39.37z M29.394,35.609
		c3.081,1.447,7.217,1.025,10.782-1.159c3.563-2.186,5.816-5.681,5.922-9.085c-3.082-1.447-7.219-1.026-10.782,1.161
		C31.753,28.71,29.5,32.206,29.394,35.609z"/>
	<path fill="#FAB570" d="M22.46,39.37c-2.765,0-5.678-0.817-8.305-2.427C9.4,34.026,6.537,29.095,6.859,24.381
		c0.033-0.479,0.297-0.909,0.708-1.155c4.056-2.425,9.749-2.109,14.503,0.808c4.753,2.915,7.618,7.844,7.296,12.56
		c-0.032,0.477-0.297,0.91-0.708,1.155C26.843,38.833,24.701,39.37,22.46,39.37z M9.761,25.366c0.106,3.404,2.359,6.899,5.923,9.085
		c3.563,2.184,7.7,2.61,10.781,1.159c-0.107-3.404-2.36-6.899-5.923-9.083C16.98,24.341,12.843,23.92,9.761,25.366z"/>
	<path fill="#FAB570" d="M33.397,52.897c-2.24,0-4.382-0.537-6.198-1.622c-0.411-0.246-0.676-0.678-0.708-1.154
		c-0.322-4.714,2.542-9.646,7.296-12.562c4.756-2.913,10.451-3.229,14.503-0.806c0.412,0.246,0.676,0.678,0.708,1.154
		c0.322,4.716-2.542,9.646-7.296,12.56C39.076,52.08,36.163,52.897,33.397,52.897z M29.394,49.136
		c3.083,1.449,7.22,1.026,10.781-1.16c3.563-2.184,5.816-5.679,5.923-9.083c-3.08-1.447-7.218-1.024-10.782,1.159
		C31.753,42.237,29.5,45.732,29.394,49.136z"/>
	<path fill="#FAB570" d="M22.46,52.897c-2.767,0-5.679-0.818-8.306-2.429c-4.754-2.915-7.618-7.846-7.296-12.56
		C6.892,37.432,7.156,37,7.567,36.754c4.055-2.425,9.747-2.109,14.502,0.806c4.755,2.916,7.619,7.846,7.297,12.562
		c-0.032,0.477-0.297,0.909-0.708,1.154C26.843,52.361,24.7,52.897,22.46,52.897z M9.761,38.893
		c0.105,3.404,2.359,6.898,5.922,9.083c3.563,2.188,7.701,2.609,10.782,1.16c-0.107-3.404-2.36-6.899-5.923-9.084
		C16.98,37.869,12.842,37.448,9.761,38.893z"/>
	<path fill="#FAB570" d="M33.397,66.425c-2.24,0-4.382-0.537-6.198-1.622c-0.411-0.245-0.676-0.678-0.708-1.154
		c-0.322-4.716,2.542-9.646,7.297-12.561c4.753-2.911,10.446-3.232,14.502-0.808c0.412,0.245,0.676,0.678,0.708,1.154
		c0.322,4.715-2.542,9.647-7.296,12.561C39.076,65.606,36.163,66.425,33.397,66.425z M29.394,62.663
		c3.083,1.447,7.22,1.026,10.781-1.16c3.563-2.184,5.816-5.678,5.923-9.083c-3.08-1.446-7.218-1.023-10.782,1.16
		C31.753,55.763,29.5,59.258,29.394,62.663z"/>
	<path fill="#FAB570" d="M22.46,66.425c-2.767,0-5.679-0.818-8.306-2.43C9.4,61.081,6.537,56.149,6.859,51.434
		c0.033-0.478,0.297-0.909,0.708-1.154c4.057-2.426,9.749-2.109,14.502,0.808c4.755,2.915,7.619,7.843,7.297,12.561
		c-0.032,0.477-0.297,0.909-0.708,1.154C26.843,65.888,24.7,66.425,22.46,66.425z M9.761,52.419c0.106,3.404,2.359,6.9,5.922,9.083
		c3.563,2.188,7.701,2.609,10.782,1.16c-0.107-3.405-2.36-6.9-5.923-9.083C16.979,51.396,12.843,50.972,9.761,52.419z"/>
	<path fill="#FAB570" d="M27.929,74.397c-0.807,0-1.461-0.654-1.461-1.462V26.046c0-0.808,0.654-1.461,1.461-1.461
		s1.462,0.654,1.462,1.461v46.889C29.391,73.743,28.736,74.397,27.929,74.397z"/>
	<path fill="#FAB570" d="M87.994,24.98c-3.053,0-5.967-0.728-8.436-2.204c-0.412-0.246-0.676-0.678-0.709-1.155
		c-0.438-6.431,3.49-13.17,10.008-17.168c6.521-3.997,14.309-4.445,19.84-1.135c0.412,0.246,0.676,0.678,0.709,1.155
		c0.439,6.431-3.488,13.17-10.008,17.168C95.787,23.856,91.785,24.98,87.994,24.98z M81.74,20.645
		c4.563,2.328,10.797,1.774,16.131-1.494c5.332-3.27,8.652-8.575,8.646-13.699c-4.566-2.329-10.799-1.777-16.131,1.494
		C85.055,10.216,81.732,15.521,81.74,20.645z"/>
	<path fill="#FAB570" d="M72.563,24.98c-3.791,0-7.793-1.125-11.402-3.338C54.64,17.645,50.711,10.905,51.15,4.474
		c0.032-0.477,0.297-0.909,0.708-1.155c5.531-3.31,13.32-2.864,19.841,1.135c6.518,3.998,10.447,10.737,10.008,17.168
		c-0.031,0.477-0.297,0.909-0.709,1.155C78.531,24.251,75.615,24.98,72.563,24.98z M54.04,5.452
		c-0.007,5.124,3.316,10.429,8.648,13.699c5.33,3.268,11.564,3.822,16.131,1.494c0.006-5.124-3.316-10.429-8.648-13.699
		C64.84,3.679,58.602,3.12,54.04,5.452z"/>
	<path fill="#FAB570" d="M87.994,44.066c-3.053,0-5.967-0.728-8.436-2.204c-0.412-0.245-0.676-0.678-0.709-1.154
		c-0.438-6.433,3.49-13.172,10.01-17.168c6.518-3.998,14.305-4.446,19.838-1.136c0.412,0.246,0.676,0.677,0.709,1.155
		c0.439,6.433-3.49,13.172-10.01,17.168C95.787,42.941,91.785,44.066,87.994,44.066z M81.74,39.73
		c4.563,2.329,10.797,1.775,16.129-1.496c5.334-3.268,8.654-8.573,8.648-13.698c-4.566-2.331-10.801-1.774-16.131,1.496
		C85.055,29.299,81.732,34.604,81.74,39.73z"/>
	<path fill="#FAB570" d="M72.563,44.066c-3.791,0-7.793-1.125-11.404-3.34C54.64,36.73,50.711,29.99,51.15,23.558
		c0.032-0.477,0.297-0.909,0.708-1.155c5.535-3.307,13.32-2.861,19.841,1.136c6.518,3.997,10.447,10.735,10.008,17.168
		c-0.031,0.477-0.297,0.909-0.709,1.154C78.531,43.336,75.615,44.066,72.563,44.066z M54.04,24.536
		c-0.007,5.125,3.314,10.43,8.648,13.698c5.33,3.271,11.566,3.825,16.129,1.496c0.008-5.125-3.314-10.431-8.645-13.699
		C64.84,22.76,58.604,22.206,54.04,24.536z"/>
	<path fill="#FAB570" d="M87.996,63.149c-3.053,0-5.971-0.729-8.438-2.205c-0.412-0.244-0.676-0.678-0.709-1.154
		c-0.438-6.43,3.49-13.17,10.008-17.167c6.518-3.996,14.307-4.444,19.84-1.135c0.412,0.246,0.676,0.677,0.709,1.155
		c0.439,6.431-3.488,13.17-10.008,17.168C95.787,62.025,91.787,63.149,87.996,63.149z M81.74,58.813
		c4.559,2.333,10.795,1.776,16.129-1.494c5.334-3.269,8.654-8.574,8.648-13.698c-4.564-2.328-10.799-1.774-16.131,1.495
		C85.055,48.384,81.732,53.689,81.74,58.813z"/>
	<path fill="#FAB570" d="M72.563,63.149c-3.791,0-7.793-1.124-11.404-3.339C54.64,55.813,50.711,49.074,51.15,42.643
		c0.032-0.478,0.297-0.909,0.708-1.155c5.535-3.307,13.32-2.861,19.841,1.135C78.217,46.62,82.146,53.36,81.707,59.79
		c-0.031,0.477-0.297,0.91-0.709,1.154C78.531,62.421,75.613,63.149,72.563,63.149z M54.04,43.62
		c-0.007,5.124,3.316,10.429,8.648,13.698c5.332,3.271,11.566,3.827,16.129,1.494c0.008-5.123-3.314-10.428-8.646-13.698
		C64.84,41.846,58.604,41.292,54.04,43.62z"/>
	<path fill="#FAB570" d="M80.277,74.397c-0.807,0-1.461-0.654-1.461-1.462V6.782c0-0.808,0.654-1.461,1.461-1.461
		c0.809,0,1.463,0.654,1.463,1.461v66.154C81.74,73.743,81.086,74.397,80.277,74.397z"/>
	<path fill="#FAB570" d="M109.906,74.397H2.095c-0.807,0-1.461-0.654-1.461-1.462s0.654-1.462,1.461-1.462h107.812
		c0.807,0,1.461,0.654,1.461,1.462S110.713,74.397,109.906,74.397z"/>
	<path fill="#FAB570" d="M34.992,108.886c-0.653,0-1.247-0.439-1.416-1.102C26.78,81.039,4.884,74.402,4.664,74.339
		c-0.775-0.225-1.222-1.035-0.997-1.811c0.225-0.775,1.037-1.226,1.81-0.996c0.966,0.279,23.728,7.182,30.932,35.533
		c0.198,0.781-0.274,1.576-1.057,1.775C35.232,108.872,35.111,108.886,34.992,108.886z"/>
	<path fill="#FAB570" d="M48.917,108.886c-0.653,0-1.248-0.439-1.416-1.102c-6.777-26.672-28.694-33.382-28.914-33.445
		c-0.774-0.228-1.219-1.038-0.994-1.812c0.226-0.776,1.036-1.227,1.809-0.995c0.965,0.279,23.728,7.182,30.932,35.533
		c0.199,0.781-0.274,1.576-1.057,1.775C49.156,108.872,49.035,108.886,48.917,108.886z"/>
	<path fill="#FAB570" d="M62.842,108.886c-0.652,0-1.248-0.439-1.416-1.102c-6.778-26.672-28.694-33.382-28.915-33.445
		c-0.774-0.228-1.219-1.038-0.994-1.812c0.226-0.776,1.038-1.227,1.809-0.995c0.965,0.279,23.728,7.182,30.933,35.533
		c0.197,0.781-0.275,1.576-1.059,1.775C63.082,108.872,62.961,108.886,62.842,108.886z"/>
	<path fill="#FAB570" d="M76.766,108.886c-0.652,0-1.246-0.439-1.416-1.102c-6.795-26.745-28.692-33.382-28.912-33.445
		c-0.775-0.225-1.222-1.035-0.997-1.811c0.225-0.775,1.038-1.226,1.811-0.996c0.966,0.279,23.727,7.182,30.932,35.533
		c0.199,0.781-0.273,1.576-1.057,1.775C77.006,108.872,76.885,108.886,76.766,108.886z"/>
	<path fill="#FAB570" d="M90.691,108.886c-0.654,0-1.248-0.439-1.416-1.102c-6.797-26.745-28.693-33.382-28.912-33.445
		c-0.775-0.225-1.223-1.035-0.996-1.811c0.225-0.775,1.035-1.226,1.809-0.996c0.967,0.279,23.729,7.182,30.932,35.533
		c0.199,0.781-0.273,1.576-1.057,1.775C90.93,108.872,90.809,108.886,90.691,108.886z"/>
	<path fill="#FAB570" d="M109.906,81.077H73.359c-0.807,0-1.461-0.653-1.461-1.461c0-0.809,0.654-1.461,1.461-1.461h36.547
		c0.807,0,1.461,0.652,1.461,1.461C111.367,80.424,110.713,81.077,109.906,81.077z"/>
	<path fill="#FAB570" d="M109.906,88.03h-29.27c-0.807,0-1.461-0.654-1.461-1.462s0.654-1.462,1.461-1.462h29.27
		c0.807,0,1.461,0.654,1.461,1.462S110.713,88.03,109.906,88.03z"/>
	<path fill="#FAB570" d="M109.906,94.981H85.443c-0.807,0-1.461-0.653-1.461-1.461c0-0.809,0.654-1.461,1.461-1.461h24.463
		c0.807,0,1.461,0.652,1.461,1.461C111.367,94.328,110.713,94.981,109.906,94.981z"/>
	<path fill="#FAB570" d="M109.906,101.935H88.799c-0.807,0-1.461-0.654-1.461-1.463c0-0.807,0.654-1.461,1.461-1.461h21.107
		c0.807,0,1.461,0.654,1.461,1.461C111.367,101.28,110.713,101.935,109.906,101.935z"/>
	<path fill="#FAB570" d="M109.906,108.886H91.084c-0.809,0-1.463-0.653-1.463-1.461c0-0.809,0.654-1.462,1.463-1.462h18.822
		c0.807,0,1.461,0.653,1.461,1.462C111.367,108.232,110.713,108.886,109.906,108.886z"/>
</g>
<g>
</g>
<g>
</g>
<g>
</g>
<g>
</g>
<g>
</g>
<g>
</g>
</svg>
